<svg id="Layer_1" data-name="Layer 1" xmlns="http://www.w3.org/2000/svg" viewBox="0 0 200 200"><defs><style>.cls-1{fill:#fb5607;}.cls-1,.cls-2,.cls-3{fill-rule:evenodd;}.cls-2{fill:#ec0972;}.cls-3{fill:#fff;}</style></defs><path class="cls-1" d="M81.7,163.73,66.11,135.87l50.14,7L92,152.75c-4.52,1.84-6.59,5.57-5.62,9,.74,2,2,3.44,4.51,2.39l65.93-27.85a11.37,11.37,0,0,1-3.26-8.56l-9,3.67,5.59-30.66,12.65,19.89c1.84,2.9-1.73,4-3.61,4.82-1.55,4.7.48,6.86,3.94,9.57h0a2.64,2.64,0,0,1-.57,4.47L92.84,168.91c-5.11,2.16-9.56-.63-11.14-5.18Z"/><path class="cls-1" d="M50.49,108,38.08,85.75c-5.14-9.18-.86-18.19,8.53-21.3l20.18-6.7L50.49,108Z"/><path class="cls-2" d="M52,115,77,37.93c1.46-4.49,5.37-8.18,10.5-7.51l63.92,8.23c3.21.41,2.2,4,1.06,8.27-1.07,4-1.12,8.64.11,11.93a5,5,0,0,0,.69,1.32,2.66,2.66,0,0,1,.32,1.8l-14.19,77.9a2.56,2.56,0,0,1-2.85,2.17L63.79,131.86C54.55,130.57,49.11,122,52,115Z"/><path class="cls-3" d="M130.92,116.19a2.54,2.54,0,0,1,1.16.08L148,43.48,86.86,35.59c-2.58-.34-4.35,1.8-5,4l-22.5,69.29a18.65,18.65,0,0,1,6.52-.49l65.09,7.83Z"/><path class="cls-3" d="M132.58,121.65a13.25,13.25,0,0,0,2.58,13.11l9.54-52.38-8.18,37.39a2.55,2.55,0,0,1-2.77,2h0l-1.17-.14Z"/><path class="cls-3" d="M129.51,135.8A18.87,18.87,0,0,1,127.44,121l-62-7.47c-12.73-1.29-11.25,11.69-.94,13.14l65,9.1Z"/><path class="cls-2" d="M94.18,47.06l41.37,5.34-1.75,7.87-42-5.35,2.35-7.86Z"/><path class="cls-2" d="M115.51,91.16q-1.1-6.27-2.16-12.41c-2.61,3.68-5.27,7.41-7.94,11.19l10.1,1.22Z"/><path class="cls-2" d="M133.31,62.44c-.27,1.23-.54,2.45-.82,3.67L90.08,60.76c.37-1.23.73-2.45,1.1-3.66l42.13,5.34Z"/><path class="cls-2" d="M132,68.34,124.94,100,119,72l-7.63-1L89.08,100.6,78.54,99.35,89.42,63,132,68.34Z"/><path class="cls-2" d="M117.86,104l-20.7-2.47c1.52-2.13,3-4.26,4.52-6.36L116.6,97q.63,3.49,1.26,7Z"/></svg>