<svg id="Layer_1" data-name="Layer 1" xmlns="http://www.w3.org/2000/svg" viewBox="0 0 200 200"><defs><style>.cls-1{fill:#fb5607;}.cls-2{fill:#ec0972;}</style></defs><path class="cls-1" d="M100.79,34.68c2.73,1.62,5.46,3.22,8.17,4.85q6.84,4.09,13.65,8.22L143.4,60.26q6,3.63,12,7.24A3,3,0,0,1,157,70.19c0,1.9,0,3.81,0,5.72q0,28,0,56.05a3.37,3.37,0,0,1-2,3.12c-4.08,2.41-8.29,4.57-12.4,6.92-5.48,3.13-11,6.13-16.54,9.19L112,159q-5.13,2.88-10.24,5.78a3.6,3.6,0,0,1-3.78.07q-5.49-3.07-11-6.13c-3.56-2-7.13-3.94-10.67-5.94-3.31-1.87-6.59-3.79-9.9-5.65-4-2.26-8.08-4.48-12.11-6.73-3.24-1.81-6.47-3.64-9.71-5.46A3.8,3.8,0,0,1,43,133.3V69a3.24,3.24,0,0,1,1.19-1.76,20.59,20.59,0,0,1,2-1.21L66.89,53.74q8.46-5,16.92-10,7.68-4.53,15.35-9.09Zm47.45,35.14c0-.22-.25-.25-.39-.34l-14.51-8.75Q123.62,54.87,113.88,49q-6.64-4-13.25-8a1,1,0,0,0-1.23,0c-3.53,2.11-7.06,4.19-10.6,6.28q-8.68,5.13-17.38,10.28l-19,11.28c-.85.51-.86.66,0,1.12,1.75.88,3.45,1.87,5.16,2.82C63.46,76,69.31,79.2,75.15,82.42c3,1.68,6.06,3.39,9.1,5.07,4.91,2.72,9.84,5.41,14.73,8.16a1.75,1.75,0,0,0,2,0c4.59-2.55,9.21-5,13.83-7.55,3.9-2.12,7.82-4.2,11.72-6.32l15.6-8.46c1.91-1,3.82-2.08,5.72-3.12C148,70.12,148.22,70.08,148.24,69.82Zm-99.73,33q0,13.39,0,26.78a1.62,1.62,0,0,0,.94,1.66c4.07,2.23,8.12,4.52,12.17,6.8,5.52,3.1,11,6.23,16.56,9.33C84.09,150.7,90,154,96,157.3c1,.53,1,.54,1-.53,0-17.67,0-35.34.27-53a3.17,3.17,0,0,0-2-3.28c-5.32-2.84-10.58-5.8-15.87-8.71L61.83,82.12q-6.15-3.39-12.3-6.75c-1-.55-1-.52-1,.66Q48.51,89.42,48.51,102.81Zm54.4,54.72a3.21,3.21,0,0,0,1.16-.48c3.77-2.1,7.53-4.22,11.29-6.32l13.69-7.61c7.14-4,14.27-8,21.43-11.93a1.6,1.6,0,0,0,.94-1.64q0-22.65,0-45.29c0-.6-.12-1.17-.07-1.81.19-2.24.09-4.5.08-6.75,0-.86-.18-1-1-.54-4.7,2.53-9.41,5-14.1,7.6-4.93,2.67-9.85,5.38-14.78,8.06C115.71,94,109.86,97.19,104,100.3a1.94,1.94,0,0,0-1.17,2q0,27.09,0,54.19A1.89,1.89,0,0,0,102.91,157.53Z"/><path class="cls-2" d="M99.35,88.45a26,26,0,0,1-7.23-.6c-6.52-1.19-12.43-3.71-17.06-8.65a15.75,15.75,0,0,1-4.17-13.53,10.31,10.31,0,0,1,3.19-6,23.23,23.23,0,0,1,11-6.37,22.08,22.08,0,0,1,9.08-.4c3,.5,6,1.08,9,1.8,1.31.32,2.63.64,4,.86a4.26,4.26,0,0,1,.7.19c.65.2.72.52.23,1-1.64,1.65-3.27,3.32-4.9,5a4.69,4.69,0,0,0-.7.71c-.83,1.19-2,1-3.18.85a24.3,24.3,0,0,0-7.47,0c-1,.17-1.95.31-2.93.55-4.3,1-5.21,6.45-2.27,9.53a18.62,18.62,0,0,0,6.88,4.39,40.31,40.31,0,0,0,5.87,1.76,48.92,48.92,0,0,0,7.16-.22,13.38,13.38,0,0,0,6-2.22,4.5,4.5,0,0,0,1.1-5.07,11.63,11.63,0,0,0-1-2.21c-.44-.69-.21-1,.41-1.2q2.78-1.1,5.55-2.22c.78-.32,1.56-.64,2.34-1a1.31,1.31,0,0,1,1.62.3,20.16,20.16,0,0,1,4.59,5.79A7,7,0,0,1,126,79.41a21.91,21.91,0,0,1-7.79,5.32,41.22,41.22,0,0,1-9.68,2.89A45.31,45.31,0,0,1,99.35,88.45Z"/><path class="cls-2" d="M50.1,126.56a5,5,0,0,1,.68-2c1.73-4.24,3.5-8.47,5.26-12.7.41-1,2.29-5.56,2.56-6.23,1.54-3.8,3.12-7.59,4.69-11.38.36-.89.74-1.78,1.09-2.68.24-.61.58-.43,1-.21L73.86,96c.9.5,1.79,1,2.69,1.49a2.31,2.31,0,0,1,1.22,1.58c.84,3.24,1.75,6.46,2.62,9.68.64,2.39,1.25,4.78,1.9,7.17,1.17,4.33,2.37,8.65,3.54,13,.65,2.39,1.26,4.78,1.91,7.17.81,3,1.64,5.91,2.44,8.88.45,1.63.86,3.26,1.28,4.89.06.23.2.5,0,.68s-.44,0-.65-.16c-3.51-2.07-7-4.14-10.54-6.18a2.2,2.2,0,0,1-1-1.42c-.65-2.38-1.28-4.77-1.86-7.18a1.61,1.61,0,0,0-.8-1.12c-3.84-2.11-7.69-4.19-11.52-6.3-.58-.33-.82-.31-1,.4-.31,1.38-.71,2.74-1,4.11s-.48,1.36-1.6.74c-3.48-1.94-7-3.87-10.43-5.82C50.59,127.37,50,127.2,50.1,126.56Zm20.84-18.78-.21,0a8.5,8.5,0,0,0-.38.81c-.55,1.53-1.08,3.07-1.62,4.6q-.92,2.65-1.82,5.31c-.15.42-.18.86.3,1.1,2.08,1,4.13,2.15,6.14,3.31.16.1.38.25.58,0s.08-.39,0-.6c-.63-3-1.27-6-1.9-9C71.68,111.49,71.32,109.63,70.94,107.78Z"/><path class="cls-2" d="M108.29,128.56c0-7,0-13.92,0-20.88a2,2,0,0,1,1.14-2c4.92-2.9,9.82-5.8,14.72-8.74,3-1.76,5.87-3.59,8.8-5.38a3.61,3.61,0,0,1,1.71-.56,9.85,9.85,0,0,1,5.5,1.18c2.51,1.5,3,4.09,2.51,6.82-.6,3.63-2.57,6.59-4.39,9.65-.7,1.17-.71,1.19.59,1.6.69.21,1.4.36,2.08.62,2.86,1.1,4.22,3.34,4.81,6.2.81,3.89-.74,7.19-2.51,10.46s-4.6,5.64-7.61,7.74-6.15,3.69-9.28,5.47c-5.27,3-10.55,6-15.83,9-.47.27-.92.58-1.4.85s-.75.11-.8-.43c0-.3,0-.6,0-.91ZM121,133.68l10.28-6.46a.94.94,0,0,0,.35-.6,13.06,13.06,0,0,0,.36-4.22c-.07-1.49-1.16-2.25-2.47-1.61-2.68,1.32-5.31,2.74-8,4.11a.87.87,0,0,0-.56.84Zm0-21.26c0,.91,0,1.81,0,2.72,0,.67.09.91.8.48,2.26-1.35,4.52-2.68,6.82-3.94a5.18,5.18,0,0,0,2.38-6.17,1.53,1.53,0,0,0-2.38-.91l-6.84,3.71a1.27,1.27,0,0,0-.78,1.29C121.05,110.54,121,111.48,121,112.42Z"/></svg>