<svg id="Layer_1" data-name="Layer 1" xmlns="http://www.w3.org/2000/svg" viewBox="0 0 200 200"><defs><style>.cls-1{fill:#ec0972;}.cls-1,.cls-2,.cls-3{fill-rule:evenodd;}.cls-2{fill:#fb5607;}.cls-3{fill:#fff;}</style></defs><path class="cls-1" d="M53,67.69a1.41,1.41,0,0,1,0-2.82h4.53V47.44c0-3.71,6.15-3.71,6.15,0l0,102.83h72.6l0-102.83c0-3.71,6.15-3.71,6.15,0V64.87c2.89,0,5.94-.58,5.94,1.41s-3.05,1.41-5.94,1.41V92.08c2.89,0,5.94-.59,5.94,1.41s-3.05,1.4-5.94,1.4v24.39c2.89,0,5.94-.59,5.94,1.41s-3.05,1.4-5.94,1.4l0,28.18h13.45c3.33,0,3.33,5.08,0,5.08H44.14c-3.33,0-3.33-5.08,0-5.08H57.59l0-28.18c-2.89,0-5.94.59-5.94-1.4s3-1.41,5.94-1.41V94.89c-2.89,0-5.94.59-5.94-1.4s3-1.41,5.94-1.41V67.69Z"/><path class="cls-1" d="M123.43,111.69a8.46,8.46,0,0,1,8.41,7.6h.33a1.41,1.41,0,0,1,0,2.82h-.52a8.46,8.46,0,0,1-16.44,0,8.45,8.45,0,0,1-16.43,0H84.92a8.45,8.45,0,0,1-16.44,0h-.64a1.41,1.41,0,0,1,0-2.82h.45a8.45,8.45,0,0,1,16.82,0H98.59a8.45,8.45,0,0,1,16.62-1.15,8.46,8.46,0,0,1,8.22-6.45Z"/><path class="cls-1" d="M107.53,57.27a8.46,8.46,0,0,1,8.42,7.6h16.22a1.41,1.41,0,0,1,0,2.82H115.75c-2,8.59-14.38,8.59-16.43,0H84.92c-2,8.59-14.39,8.59-16.44,0-2.91,0-2.64-2.82-.19-2.82,1-10.05,15.82-10.05,16.82,0h14a8.44,8.44,0,0,1,8.4-7.6Z"/><path class="cls-2" d="M107,84.47a8.44,8.44,0,0,1,8.21,6.46c2.23-9.17,15.69-8.25,16.63,1.15,2.25,0,2.53,2.81-.19,2.81-2.05,8.58-14.36,8.59-16.44,0-2.07,8.55-14.35,8.55-16.42,0-2.07,8.56-14.38,8.55-16.44,0H67.84a1.41,1.41,0,0,1,0-2.81H82.17c.93-9.4,14.4-10.32,16.62-1.15A8.44,8.44,0,0,1,107,84.47Z"/><path class="cls-3" d="M122.1,114.58a2.78,2.78,0,1,1-2.78,2.78,2.79,2.79,0,0,1,2.78-2.78Z"/><path class="cls-3" d="M105.67,114.58a2.78,2.78,0,1,1-2.78,2.78,2.78,2.78,0,0,1,2.78-2.78Z"/><path class="cls-3" d="M75.37,114.58a2.78,2.78,0,1,1-2.78,2.78,2.79,2.79,0,0,1,2.78-2.78Z"/><path class="cls-3" d="M75.37,60.16c3.66,0,3.66,5.56,0,5.56s-3.66-5.56,0-5.56Z"/><path class="cls-3" d="M106.21,60.16c3.65,0,3.65,5.56,0,5.56s-3.66-5.56,0-5.56Z"/><path class="cls-3" d="M105.67,87.36c3.66,0,3.66,5.56,0,5.56s-3.66-5.56,0-5.56Z"/><path class="cls-3" d="M122.1,87.36c3.66,0,3.66,5.56,0,5.56s-3.66-5.56,0-5.56Z"/><path class="cls-3" d="M89.24,87.36c3.67,0,3.67,5.56,0,5.56s-3.65-5.56,0-5.56Z"/></svg>