<svg id="Layer_5" enable-background="new 0 0 64 64" height="512" viewBox="0 0 64 64" width="512" xmlns="http://www.w3.org/2000/svg"><g><g><g><path d="m47.67 39.41c1.79.92 3.18 2.5 3.87 4.41-5.25 1.36-12.08 2.18-19.54 2.18s-14.29-.82-19.54-2.18c.69-1.91 2.08-3.49 3.87-4.41.95-.5 2.03-.8 3.17-.88l8.5-.53.05.15c.29.85.83 1.56 1.52 2.06s1.53.79 2.43.79c1.79 0 3.38-1.15 3.95-2.85l.05-.15 8.5.53c1.14.08 2.22.38 3.17.88z" fill="#b4dd7f"/></g><g><path d="m8 32v10.4c-3.77-1.5-6-3.38-6-5.4 0-1.38.56-2.63 1.46-3.54.91-.9 2.16-1.46 3.54-1.46z" fill="#ffeaa7"/></g><g><path d="m57 32c2.76 0 5 2.24 5 5 0 2.02-2.23 3.9-6 5.4v-10.4z" fill="#ffeaa7"/></g><g><path d="m51.54 43.82c.58-.14 1.13-.3 1.67-.46 1-.3 1.94-.62 2.79-.96 3.77-1.5 6-3.38 6-5.4v16c0 4.97-13.43 9-30 9s-30-4.03-30-9v-16c0 2.02 2.23 3.9 6 5.4 1.31.52 2.8 1 4.46 1.42 5.25 1.36 12.08 2.18 19.54 2.18s14.29-.82 19.54-2.18z" fill="#e6e9ed"/></g><g><path d="m50.87 19.01c.61 5.84 1.13 11.32 1.13 12.99 0 2.32-2.35 5.31-4.33 7.41-.95-.5-2.03-.8-3.17-.88l-8.5-.53-.93-3.4c4.57-1.21 8.06-5.04 8.78-9.79v-.01c.68-.31 1.15-1 1.15-1.8v-4c0-.74-.4-1.38-1-1.73v-.56c0-2.27-1.28-4.35-3.32-5.37l-.68-.34h-16l-.68.34c-2.04 1.02-3.32 3.1-3.32 5.37v.56c-.6.35-1 .99-1 1.73v4c0 .8.47 1.49 1.15 1.8v.01c.72 4.75 4.21 8.58 8.78 9.79l-.93 3.4-8.5.53c-1.14.08-2.22.38-3.17.88-1.98-2.1-4.33-5.09-4.33-7.41 0-1.67.52-7.15 1.13-12.99.51-4.83 2.79-9.08 6.17-12.13 3.38-3.04 7.84-4.88 12.7-4.88 9.72 0 17.86 7.35 18.87 17.01z" fill="#656d78"/></g><g><path d="m35.07 34.6.93 3.4-.05.15c-.57 1.7-2.16 2.85-3.95 2.85-.9 0-1.74-.29-2.43-.79s-1.23-1.21-1.52-2.06l-.05-.15.93-3.4c.98.26 2.01.4 3.07.4s2.09-.14 3.07-.4z" fill="#f0d0b4"/></g><g><path d="m33.24 21.97.38 1.52c.22.89 1.02 1.51 1.94 1.51h7.44c.3 0 .59-.07.85-.19-.72 4.75-4.21 8.58-8.78 9.79-.98.26-2.01.4-3.07.4s-2.09-.14-3.07-.4c-4.57-1.21-8.06-5.04-8.78-9.79.26.12.55.19.85.19h7.44c.92 0 1.72-.62 1.94-1.51l.38-1.52c.14-.57.65-.97 1.24-.97s1.1.4 1.24.97z" fill="#f0d0b4"/></g><g><path d="m44 16.71v.56c-.29-.17-.64-.27-1-.27h-22c-.36 0-.71.1-1 .27v-.56c0-2.27 1.28-4.35 3.32-5.37l.68-.34h16l.68.34c2.04 1.02 3.32 3.1 3.32 5.37z" fill="#f0d0b4"/></g><g><path d="m20 17.27c.29-.17.64-.27 1-.27h22c.36 0 .71.1 1 .27.6.35 1 .99 1 1.73v4c0 .8-.47 1.49-1.15 1.8v.01c-.26.12-.55.19-.85.19h-7.44c-.92 0-1.72-.62-1.94-1.51l-.38-1.52c-.14-.57-.65-.97-1.24-.97s-1.1.4-1.24.97l-.38 1.52c-.22.89-1.02 1.51-1.94 1.51h-7.44c-.3 0-.59-.07-.85-.19v-.01c-.68-.31-1.15-1-1.15-1.8v-4c0-.74.4-1.38 1-1.73z" fill="#69d6f4"/></g></g><g><path d="m28 49h-3v2h3c.551 0 1 .449 1 1s-.449 1-1 1h-3v2h3c.551 0 1 .449 1 1s-.449 1-1 1h-3v2h3c1.654 0 3-1.346 3-3 0-.771-.301-1.468-.78-2 .48-.532.78-1.229.78-2 0-1.654-1.346-3-3-3z"/><path d="m36 49h-3v10h3c2.757 0 5-2.243 5-5s-2.243-5-5-5zm0 8h-1v-6h1c1.654 0 3 1.346 3 3s-1.346 3-3 3z"/><path d="m57 31h-2v10.725c-.878.324-1.849.632-2.895.922-.668-1.4-1.664-2.581-2.893-3.455 2.506-2.85 3.788-5.269 3.788-7.192 0-1.46-.381-5.865-1.134-13.09-1.063-10.21-9.604-17.91-19.866-17.91s-18.803 7.7-19.866 17.91c-.753 7.225-1.134 11.63-1.134 13.09 0 1.923 1.282 4.342 3.788 7.192-1.228.874-2.225 2.054-2.893 3.454-1.046-.29-2.017-.598-2.895-.922v-10.724h-2c-3.309 0-6 2.691-6 6v16c0 6.495 15.972 10 31 10s31-3.505 31-10v-16c0-3.309-2.691-6-6-6zm0 2c2.206 0 4 1.794 4 4 0 1.31-1.426 2.67-4 3.891zm-44-1c0-.957.195-3.969 1.123-12.883.957-9.188 8.643-16.117 17.877-16.117s16.92 6.929 17.877 16.117c.928 8.914 1.123 11.926 1.123 12.883 0 1.454-1.277 3.646-3.587 6.204-.895-.367-1.851-.608-2.852-.67l-7.786-.487-.492-1.796c4.267-1.517 7.584-5.219 8.461-9.819.757-.546 1.256-1.43 1.256-2.432v-4c0-.883-.391-1.67-1-2.22v-.072c0-2.668-1.483-5.067-3.87-6.261l-.894-.447h-16.472l-.894.447c-2.387 1.194-3.87 3.593-3.87 6.261v.072c-.609.549-1 1.337-1 2.22v4c0 1.002.499 1.886 1.256 2.431.877 4.6 4.194 8.303 8.461 9.819l-.492 1.796-7.786.487c-1.001.063-1.957.303-2.852.67-2.31-2.557-3.587-4.749-3.587-6.203zm22.562-8c-.46 0-.859-.312-.97-.757l-.378-1.515c-.256-1.018-1.166-1.728-2.214-1.728s-1.958.71-2.213 1.728l-.378 1.515c-.112.445-.511.757-.971.757h-7.438c-.551 0-1-.449-1-1v-4c0-.551.449-1 1-1h22c.551 0 1 .449 1 1v4c0 .551-.449 1-1 1zm-14.512-8c.227-1.615 1.224-3.019 2.715-3.764l.471-.236h15.527l.472.236c1.491.745 2.488 2.148 2.715 3.764zm7.388 10c1.379 0 2.576-.935 2.911-2.273l.378-1.514c.063-.251.482-.25.545 0l.378 1.515c.335 1.337 1.532 2.272 2.912 2.272h6.997c-1.324 4.642-5.637 8-10.558 8s-9.234-3.358-10.558-8zm1.207 9.78c.767.144 1.554.22 2.355.22s1.588-.076 2.355-.22l.596 2.174c-.464 1.227-1.63 2.046-2.951 2.046-1.32 0-2.486-.819-2.951-2.046zm-10.082 3.749 7.782-.486c.846 1.788 2.64 2.957 4.655 2.957s3.809-1.17 4.655-2.957l7.782.486c2.422.151 4.554 1.537 5.696 3.618-4.831 1.123-11.031 1.853-18.133 1.853s-13.302-.73-18.132-1.853c1.142-2.081 3.273-3.466 5.695-3.618zm-12.563-6.529v7.891c-2.574-1.221-4-2.581-4-3.891 0-2.206 1.794-4 4-4zm25 28c-17.09 0-29-4.216-29-8v-12.277c4.739 4.1 17.159 6.277 29 6.277s24.261-2.177 29-6.277v12.277c0 3.784-11.91 8-29 8z"/><path d="m6.655 47.212c2.818 1.074 6.232 1.945 10.146 2.587l.324-1.974c-3.783-.621-7.066-1.457-9.759-2.483z"/><path d="m18.905 50.116c.68.093 1.36.178 2.038.255l.226-1.987c-.663-.075-1.327-.158-1.991-.25z"/><path d="m44.857 56.083.306 1.977c5.322-.824 9.951-2.219 12.382-3.732l-1.057-1.698c-1.71 1.063-5.662 2.529-11.631 3.453z"/><path d="m32 32c2.206 0 4-1.794 4-4h-2c0 1.103-.897 2-2 2s-2-.897-2-2h-2c0 2.206 1.794 4 4 4z"/><path d="m45.772 35.617c2.112-2.562 3.228-5.541 3.228-8.617h-2c0 2.606-.958 5.146-2.771 7.345z"/><path d="m15 28c0 2.7.994 5.34 2.875 7.635l1.547-1.269c-1.585-1.932-2.422-4.134-2.422-6.366z"/></g></g></svg>