<svg id="Layer_5" enable-background="new 0 0 64 64" height="512" viewBox="0 0 64 64" width="512" xmlns="http://www.w3.org/2000/svg"><g><g><g><path d="m56 42h6v4h-6z" fill="#fcd770"/></g><g><path d="m56 34h6v4h-6z" fill="#fcd770"/></g><g><path d="m56 50h6v4h-6z" fill="#fcd770"/></g><g><circle cx="60" cy="16" fill="#ff826e" r="2"/></g><g><path d="m56 54v1c0 .55-.45 1-1 1h-1-4-4-4-4-4-1c-.55 0-1-.45-1-1v-1-4-4-4-4-4-1c0-.55.45-1 1-1h1 4 4 4 4 4 1c.55 0 1 .45 1 1v1 4 4 4 4z" fill="#ccd1d9"/></g><g><path d="m50 56h4v6h-4z" fill="#fcd770"/></g><g><path d="m50 26h4v6h-4z" fill="#fcd770"/></g><g><circle cx="52" cy="20" fill="#ff826e" r="2"/></g><g><path d="m36 36h16v16h-16z" fill="#e6e9ed"/></g><g><path d="m42 56h4v6h-4z" fill="#fcd770"/></g><g><path d="m42 26h4v6h-4z" fill="#fcd770"/></g><g><path d="m34 27h-20-4-1c-3.87 0-7-3.13-7-7 0-3.53 2.61-6.44 6-6.92 0-.03 0-.05 0-.08 0-3.31 2.69-6 6-6 .85 0 1.67.18 2.4.5 1.05-3.19 4.05-5.5 7.6-5.5 4.11 0 7.5 3.1 7.95 7.1.34-.06.69-.1 1.05-.1 2.7 0 4.98 1.78 5.73 4.22 3.03.78 5.27 3.51 5.27 6.78 0 3.53-2.6 6.44-6 6.92-.32.06-.66.08-1 .08z" fill="#e6e9ed"/></g><g><path d="m34 56h4v6h-4z" fill="#fcd770"/></g><g><path d="m38 26.93v5.07h-4v-5h3c.34 0 .68-.02 1-.08z" fill="#fcd770"/></g><g><path d="m26 50h6v4h-6z" fill="#fcd770"/></g><g><path d="m26 42h6v4h-6z" fill="#fcd770"/></g><g><path d="m26 34h6v4h-6z" fill="#fcd770"/></g><g><circle cx="20" cy="36" fill="#ff826e" r="2"/></g><g><circle cx="18" cy="44" fill="#ff826e" r="2"/></g><g><circle cx="16" cy="52" fill="#ff826e" r="2"/></g></g><g><path d="m35 53h18v-18h-18zm2-16h14v14h-14z"/><path d="m55 31v-6h-6v6h-2v-6h-3.765c1.102-1.371 1.765-3.109 1.765-5 0-2.367-1.055-4.519-2.749-6h7.749c.551 0 1 .449 1 1v2.184c-1.161.414-2 1.514-2 2.816 0 1.654 1.346 3 3 3s3-1.346 3-3c0-1.302-.839-2.402-2-2.816v-2.184c0-1.654-1.346-3-3-3h-10.696c-.359-.757-.839-1.431-1.422-2h20.118c.551 0 1 .449 1 1v2.184c-1.161.414-2 1.514-2 2.816 0 1.654 1.346 3 3 3s3-1.346 3-3c0-1.302-.839-2.402-2-2.816v-2.184c0-1.654-1.346-3-3-3h-25v.014c-.076 0-.149-.013-.226-.01-.914-4.056-4.525-7.004-8.774-7.004-3.553 0-6.722 2.069-8.176 5.242-.593-.161-1.203-.242-1.824-.242-3.579 0-6.54 2.701-6.948 6.249-3.502.88-6.052 4.077-6.052 7.751 0 2.953 1.613 5.532 4 6.918v23.082c0 1.654 1.346 3 3 3h5.184c.414 1.161 1.514 2 2.816 2 1.654 0 3-1.346 3-3s-1.346-3-3-3c-1.302 0-2.402.839-2.816 2h-5.184c-.551 0-1-.449-1-1v-22.263c.641.166 1.308.263 2 .263v14c0 1.654 1.346 3 3 3h3.184c.414 1.161 1.514 2 2.816 2 1.654 0 3-1.346 3-3s-1.346-3-3-3c-1.302 0-2.402.839-2.816 2h-3.184c-.551 0-1-.449-1-1v-14h2v6c0 1.654 1.346 3 3 3h1.184c.414 1.161 1.514 2 2.816 2 1.654 0 3-1.346 3-3s-1.346-3-3-3c-1.302 0-2.402.839-2.816 2h-1.184c-.551 0-1-.449-1-1v-6h18v3c-1.103 0-2 .897-2 2h-6v6h6v2h-6v6h6v2h-6v6h6c0 1.103.897 2 2 2v6h6v-6h2v6h6v-6h2v6h6v-6c1.103 0 2-.897 2-2h6v-6h-6v-2h6v-6h-6v-2h6v-6h-6c0-1.103-.897-2-2-2zm-3-10c-.551 0-1-.449-1-1s.449-1 1-1 1 .449 1 1-.449 1-1 1zm8-4c-.551 0-1-.449-1-1s.449-1 1-1 1 .449 1 1-.449 1-1 1zm-44 34c.551 0 1 .449 1 1s-.449 1-1 1-1-.449-1-1 .449-1 1-1zm2-8c.551 0 1 .449 1 1s-.449 1-1 1-1-.449-1-1 .449-1 1-1zm2-8c.551 0 1 .449 1 1s-.449 1-1 1-1-.449-1-1 .449-1 1-1zm7 2v-2h4v2zm0 8v-2h4v2zm0 8v-2h4v2zm24-26h2v4h-2zm-6 4h-2v-4h2zm-4-4.082v4.082h-2v-3.263c.71-.184 1.381-.46 2-.819zm-38-6.918c0-2.962 2.212-5.512 5.145-5.931l.855-.202v-.867c0-2.757 2.243-5 5-5 .692 0 1.365.141 2.001.42l1.008.441.344-1.045c.946-2.88 3.617-4.816 6.647-4.816 3.565 0 6.554 2.669 6.952 6.21l.119 1.06 1.05-.187c.313-.056.6-.083.879-.083 2.206 0 4.126 1.415 4.777 3.521l.166.535.543.138c2.658.678 4.514 3.066 4.514 5.806 0 3.309-2.691 6-6 6h-28c-3.309 0-6-2.691-6-6zm32 8h2v3h-2zm2 33h-2v-4h2zm8 0h-2v-4h2zm8 0h-2v-4h2zm-20-6v-22h22l.001 22zm28-4v2h-4v-2zm0-8v2h-4v-2zm0-8v2h-4v-2z"/><path d="m16.031 20h3.938l1.061 4.243 1.94-.485-3.189-12.758h-3.562l-3.189 12.757 1.94.485zm2.188-7 1.25 5h-2.938l1.25-5z"/><path d="m31 22h-2v-9h2v-2h-6v2h2v9h-2v2h6z"/></g></g></svg>