<svg xmlns="http://www.w3.org/2000/svg" xmlns:xlink="http://www.w3.org/1999/xlink" width="186" height="38" viewBox="0 0 186 38">
    <defs>
        <path id="prefix__a" d="M0.076 0.031L26.842 0.031 26.842 8.804 0.076 8.804z"/>
    </defs>
    <g fill="none" fill-rule="evenodd" opacity=".9">
        <path fill="#5D6585" d="M38.073 19.15c-.036-1.094-.127-2.134-.305-3.086-.904-.14-1.841-.247-2.754-.376-.139-.552-.262-1.079-.454-1.57-.193-.493-.383-.974-.577-1.457.308-.337.629-.663.953-.986.244-.244.48-.5.716-.741.08-.082.178-.15.236-.253-.45-.814-.941-1.61-1.477-2.329-.077-.103-.147-.22-.245-.306-.839.332-1.692.65-2.535.978-.692-.813-1.471-1.577-2.325-2.234-.063-.048-.152-.112-.157-.147-.005-.027.026-.106.043-.167.24-.833.49-1.652.717-2.468-.842-.608-1.79-1.11-2.788-1.562-.693.641-1.342 1.325-2.028 1.971-1.03-.353-2.086-.68-3.288-.863-.22-.902-.436-1.809-.655-2.712-.985-.102-2.14-.128-3.164-.044-.26.91-.5 1.844-.77 2.748-1.212.17-2.324.442-3.33.82-.17-.161-.325-.34-.48-.515-.43-.48-.863-.976-1.286-1.448-.038-.043-.075-.098-.13-.123-.99.431-1.906.978-2.772 1.518-.058.037-.123.066-.166.123.294.861.577 1.733.866 2.6-.1.104-.223.186-.332.278-.75.63-1.493 1.299-2.15 2.007-.02.02-.042.064-.08.06-.828-.386-1.654-.773-2.473-1.168-.098.092-.186.2-.272.305-.607.749-1.146 1.564-1.607 2.451.14.176.316.332.48.506.45.476.925.927 1.373 1.405.05.053.11.105.113.139.002.025-.05.12-.078.184-.03.066-.069.13-.088.174-.38.863-.679 1.79-.927 2.756-.949.117-1.9.233-2.84.358-.218.94-.326 1.99-.324 3.149.91.275 1.843.527 2.745.811.009 1.288.236 2.358.49 3.402-.394.258-.804.497-1.207.75-.35.22-.723.437-1.066.645-.05.03-.11.052-.14.105.31 1.02.696 1.988 1.136 2.861.029.056.059.12.105.166.947-.16 1.876-.337 2.824-.497.427.73.9 1.415 1.433 2.04.657-.502 1.283-1.045 1.923-1.552.216-.171.434-.34.638-.523-1.283-1.714-2.322-3.714-2.745-6.272-.224-1.356-.133-2.882.106-4.135.178-.936.46-1.806.803-2.573.12-.266.229-.53.359-.776.517-.972 1.123-1.877 1.845-2.66.72-.783 1.5-1.493 2.42-2.094.458-.298.921-.578 1.426-.829.747-.373 1.59-.693 2.474-.916.892-.225 1.904-.392 2.998-.392 1.47 0 2.77.212 3.933.576 1.145.358 2.163.847 3.077 1.439 1.812 1.174 3.3 2.756 4.336 4.684.52.968.943 2.055 1.215 3.289.27 1.228.367 2.702.201 4.134-.156 1.337-.51 2.494-.962 3.55-.45 1.053-1.024 1.987-1.678 2.835.837.718 1.691 1.417 2.579 2.085.45-.586.871-1.223 1.25-1.867.024-.042.045-.093.087-.122.898.19 1.787.392 2.683.585.487-.925.924-1.9 1.242-2.992-.68-.54-1.434-1.045-2.141-1.544-.048-.034-.11-.061-.14-.114.255-.975.383-2.077.488-3.2.882-.285 1.756-.575 2.623-.873zm.717.507c-.015.029-.054.026-.078.035-.849.289-1.753.578-2.605.872-.066.764-.167 1.498-.315 2.215-.011.052-.03.122-.026.14.011.054.235.181.288.218.68.474 1.378.962 2.001 1.483-.39 1.52-1.007 2.816-1.669 4.065-.91-.195-1.81-.397-2.718-.593-.05.031-.067.092-.097.139-.44.709-.954 1.399-1.468 2.05-.325-.237-.629-.495-.944-.742-.31-.242-.634-.472-.944-.732-.554-.464-1.13-.957-1.714-1.43-.04-.033-.112-.092-.113-.096 0-.006.087-.116.122-.158.126-.148.266-.311.376-.444.496-.599.91-1.298 1.268-2.016.368-.736.665-1.513.892-2.399.219-.86.367-1.836.367-2.912 0-.708-.071-1.395-.175-2.015-.209-1.247-.59-2.335-1.076-3.298-.961-1.908-2.378-3.5-4.117-4.65-1.327-.876-2.847-1.53-4.737-1.84-.635-.104-1.302-.148-2.037-.148-1.409 0-2.669.276-3.741.645-2.15.742-3.869 1.991-5.22 3.551-.678.784-1.27 1.674-1.72 2.652-.229.492-.446 1.01-.622 1.57-.175.558-.318 1.153-.41 1.78-.099.66-.123 1.352-.123 2.05 0 .678.113 1.345.245 1.944.523 2.386 1.578 4.242 2.911 5.844-.142.136-.3.253-.455.376-.457.36-.912.744-1.372 1.116-.61.493-1.22.988-1.827 1.483-.093-.073-.152-.179-.227-.27-.512-.625-1.035-1.274-1.468-1.99-.954.166-1.9.34-2.85.506-.04-.025-.049-.074-.07-.113-.146-.264-.298-.559-.437-.846-.476-.975-.866-2.049-1.19-3.184.035-.055.098-.074.15-.105.75-.458 1.532-.937 2.29-1.404-.177-.795-.327-1.616-.377-2.538-.904-.28-1.836-.533-2.744-.81-.068-1.59.124-3.055.428-4.328.956-.119 1.908-.241 2.867-.357.212-.752.46-1.484.752-2.19.021-.052.063-.102.062-.13-.003-.034-.067-.09-.114-.14-.122-.13-.268-.267-.376-.384-.486-.525-1.018-1.02-1.504-1.535.606-1.243 1.338-2.358 2.195-3.358.119-.14.243-.282.375-.41.823.402 1.67.782 2.491 1.186.095-.05.16-.142.236-.218.373-.372.782-.732 1.18-1.091.16-.143.334-.272.481-.427-.295-.883-.585-1.771-.883-2.652.025-.043.076-.062.114-.087 1.197-.774 2.447-1.544 3.864-2.111.17.165.333.344.49.523.308.356.621.711.943 1.065.16.174.311.359.481.523.79-.268 1.64-.474 2.553-.62.052-.106.073-.225.104-.34.22-.797.454-1.624.674-2.434 1.36-.168 2.982-.127 4.3.053.22.91.442 1.814.655 2.73.882.181 1.727.4 2.51.68.062-.018.097-.08.14-.122.627-.626 1.288-1.257 1.93-1.884.69.293 1.355.612 1.986.968.627.355 1.236.722 1.782 1.161-.25.888-.513 1.767-.769 2.652.152.158.334.282.499.427.324.285.625.598.935.907.153.153.295.317.454.463.789-.304 1.58-.604 2.396-.916.061-.024.135-.064.157-.061.05.006.127.138.175.2.81 1.041 1.558 2.184 2.185 3.402-.064.099-.153.18-.236.262-.572.571-1.148 1.17-1.713 1.762.293.708.583 1.418.778 2.224.925.127 1.868.235 2.771.385.282 1.261.42 2.714.428 4.221z"/>
        <path fill="#F6F9FF" d="M37.79 16.075c.178.952.27 1.993.306 3.087-.867.298-1.742.588-2.623.873-.105 1.123-.234 2.225-.489 3.2.03.053.092.08.14.114.708.5 1.46 1.004 2.141 1.544-.317 1.092-.755 2.067-1.241 2.992-.897-.192-1.785-.394-2.684-.585-.042.03-.063.08-.087.122-.378.644-.8 1.281-1.25 1.868-.887-.669-1.742-1.367-2.579-2.085.654-.849 1.229-1.782 1.679-2.836.45-1.056.805-2.212.962-3.55.165-1.432.069-2.906-.202-4.134-.272-1.233-.695-2.32-1.215-3.289-1.036-1.927-2.523-3.51-4.335-4.684-.914-.592-1.932-1.081-3.078-1.44-1.162-.363-2.462-.575-3.933-.575-1.093 0-2.105.167-2.998.392-.883.223-1.727.544-2.474.916-.504.252-.968.531-1.425.83-.92.6-1.7 1.31-2.42 2.093-.723.783-1.329 1.688-1.846 2.66-.13.245-.238.51-.358.776-.345.767-.626 1.637-.804 2.574-.239 1.253-.33 2.778-.105 4.134.422 2.558 1.461 4.558 2.744 6.272-.203.184-.421.352-.637.523-.64.507-1.267 1.05-1.923 1.553-.533-.626-1.007-1.31-1.434-2.04-.947.16-1.877.336-2.823.496-.047-.045-.077-.11-.106-.166-.44-.872-.825-1.84-1.136-2.861.03-.053.09-.074.14-.104.343-.21.716-.426 1.067-.646.403-.252.812-.492 1.206-.75-.253-1.044-.48-2.114-.49-3.402-.902-.283-1.834-.536-2.744-.81-.003-1.16.105-2.21.323-3.15.941-.125 1.892-.241 2.84-.358.248-.966.547-1.893.928-2.756.018-.044.057-.108.087-.174.028-.063.08-.159.079-.184-.003-.034-.064-.085-.114-.14-.447-.477-.923-.927-1.372-1.404-.165-.174-.341-.33-.481-.506.462-.887 1-1.702 1.608-2.45.086-.106.173-.214.271-.306.82.395 1.646.782 2.474 1.17.038.002.06-.042.079-.062.658-.708 1.4-1.378 2.15-2.007.11-.092.232-.173.332-.279-.288-.866-.571-1.738-.866-2.6.043-.055.108-.085.166-.121.866-.541 1.783-1.088 2.772-1.518.056.024.093.08.13.122.423.472.857.968 1.286 1.448.156.174.311.354.48.514 1.007-.376 2.118-.649 3.331-.82.269-.903.509-1.836.77-2.747 1.024-.084 2.178-.058 3.163.044.22.904.436 1.81.656 2.713 1.201.182 2.257.51 3.287.863.686-.647 1.335-1.33 2.028-1.972.999.452 1.946.955 2.788 1.562-.226.816-.477 1.636-.717 2.468-.017.062-.048.14-.043.167.006.035.094.1.157.148.854.656 1.634 1.42 2.325 2.233.844-.327 1.696-.645 2.535-.977.098.086.168.202.245.305.536.72 1.027 1.515 1.477 2.33-.058.102-.155.17-.236.252-.236.24-.472.498-.716.741-.324.323-.644.649-.953.987.194.482.384.963.577 1.456.192.491.316 1.018.454 1.57.913.13 1.85.236 2.754.376"/>
        <g transform="translate(5.803 28.956)">
            <mask id="prefix__b" fill="#fff">
                <use xlink:href="#prefix__a"/>
            </mask>
            <path fill="#FFFFFE" d="M25.679 5.024c.105.026.172.09.262.13-.481.936-.99 1.844-1.477 2.774-.095-.023-.16-.077-.253-.104.478-.945.98-1.866 1.468-2.8" mask="url(#prefix__b)"/>
            <path fill="#5D6585" d="M2.462 7.911c.091-.026.16-.073.245-.105-.48-.942-.982-1.864-1.468-2.8H1.22c-.075.053-.178.078-.236.148.49.921.984 1.84 1.477 2.757zm.595-.253c.081-.046.184-.072.262-.122-.487-.947-.963-1.907-1.443-2.861H1.86c-.098.056-.218.09-.297.165.43.822.873 1.662 1.303 2.47.063.117.112.24.192.348zm.708-.297c.039-.015.088-.018.113-.052-.44-.99-.89-1.973-1.363-2.931-.093.023-.22.09-.324.131.477.978.966 1.944 1.46 2.905.036-.018.073-.036.114-.053zm.446-.165c.085-.029.16-.067.253-.087-.105-.297-.23-.574-.35-.855-.121-.024-.236-.055-.358-.079.143.349.31.673.455 1.02zm.847-.297c-.058-.165-.116-.332-.192-.48-.119-.012-.215-.047-.323-.07.072.224.174.42.253.637.088-.03.178-.054.262-.087zm.35-.105c.156-.063.343-.094.498-.157-.206-.038-.414-.074-.611-.121.032.098.062.199.113.278zm16.224-.261h-.026c-.106.03-.25.06-.376.087-.072.015-.149.009-.21.043.174.042.329.103.507.14.034-.09.074-.176.105-.27zm.751-.157c-.001-.007-.007-.01-.017-.009-.099.035-.219.049-.324.078-.052.163-.13.3-.174.472.082.03.17.056.254.087.09-.206.176-.417.261-.628zm.796-.183c0-.006-.001-.011-.009-.01-.115.036-.24.063-.366.088-.11.29-.245.554-.341.855.087.023.166.054.244.087.16-.338.319-.676.472-1.02zm-.009-.759c.379-.832.774-1.648 1.146-2.486-1.534-.635-3.212-1.218-5.088-1.614-.46-.097-.93-.178-1.407-.262-.478-.084-.971-.13-1.486-.192C15.109.735 13.678.688 12.34.74c-.779.032-1.5.087-2.211.175-2.843.352-5.3 1.06-7.536 2.007.333.76.725 1.518 1.067 2.258.023.05.036.109.078.149 2.819-.927 6.02-1.588 9.765-1.588 3.735 0 6.924.696 9.667 1.693zm1.565-.908c-.112-.042-.216-.093-.323-.14-.463.979-.917 1.965-1.372 2.95.082.03.16.065.244.096.475-.978.976-1.929 1.45-2.906zm.638.323c-.102-.052-.2-.108-.305-.156-.047.022-.08.123-.114.191-.442.89-.916 1.8-1.346 2.678.095.036.179.082.28.113.491-.945.99-1.882 1.485-2.826zm.568.305c-.09-.04-.157-.104-.262-.13-.489.934-.99 1.855-1.468 2.8.092.027.158.08.253.104.487-.93.996-1.838 1.477-2.774zM25.26 4.02c.544.268 1.08.576 1.582.9-.693 1.3-1.385 2.601-2.09 3.89-1.478-.688-3.025-1.308-4.78-1.72.122-.586.294-1.2.436-1.796-2.025-.533-4.37-.872-6.923-.872-2.565 0-4.898.332-6.976.82.142.617.308 1.21.447 1.831-1.753.412-3.304 1.025-4.773 1.72-.047-.019-.058-.074-.08-.114C1.439 7.43.754 6.159.077 4.91c.658-.44 1.376-.819 2.141-1.151-.022-.103-.084-.191-.13-.288-.137-.284-.276-.593-.412-.89C4.101 1.51 6.72.65 9.822.269c.775-.094 1.56-.183 2.413-.209.137-.004.275-.011.42-.018.741-.03 1.528.007 2.255.035.579.023 1.152.078 1.695.14 3.268.374 6.129 1.266 8.62 2.39-.171.391-.35.774-.533 1.152.18.106.382.17.568.261z" mask="url(#prefix__b)"/>
        </g>
        <path fill="#FFFFFE" d="M30.87 33.649c.105.049.204.104.307.156-.495.944-.994 1.881-1.486 2.826-.101-.03-.184-.077-.28-.113.43-.877.904-1.788 1.346-2.678.034-.068.067-.169.114-.191M30.215 33.343c.107.046.211.097.323.14-.475.976-.976 1.928-1.45 2.905-.084-.031-.163-.066-.245-.097.455-.984.91-1.97 1.372-2.948"/>
        <path fill="#F6F9FF" d="M30.127 31.904c-.372.838-.767 1.654-1.146 2.486-2.743-.997-5.932-1.692-9.667-1.692-3.745 0-6.946.66-9.765 1.587-.042-.04-.055-.099-.078-.149-.342-.74-.734-1.498-1.067-2.258 2.237-.946 4.693-1.655 7.536-2.007.71-.088 1.432-.143 2.21-.174 1.339-.053 2.77-.006 3.996.14.515.06 1.008.107 1.486.19.478.085.947.166 1.407.263 1.876.396 3.554.98 5.088 1.614"/>
        <path fill="#FFFFFE" d="M28.974 35.14c.007-.002.008.003.009.009-.154.344-.313.682-.473 1.02-.077-.033-.157-.064-.244-.087.096-.301.232-.565.34-.855.127-.025.253-.051.368-.087M28.17 35.323c.01-.001.015.002.017.01-.085.21-.171.42-.262.627-.083-.03-.172-.056-.254-.087.045-.171.122-.31.175-.472.104-.029.225-.043.323-.078M27.41 35.489h.026c-.032.094-.072.18-.106.27-.178-.037-.333-.098-.507-.14.062-.034.138-.028.21-.043.126-.026.27-.057.376-.087"/>
        <path fill="#5D6585" d="M14.69 18.305v-.236c-.102-.002-.228-.027-.305-.026.086.102.175.203.305.262zm.438.227c.014-.131.014-.322 0-.454h-.21c-.012.084-.017.259 0 .367.06.037.132.066.21.087zm.445.104c.02-.177.003-.392.009-.584-.078 0-.153.005-.218.017-.001.18-.015.346-.01.533.068.017.145.024.219.034zm.245-2.86c.005-.038-.043-.033-.061-.044-.376-.23-.718-.566-.944-.951-.125-.213-.214-.465-.298-.707-.063-.187-.119-.39-.175-.584-.018-.064-.023-.145-.052-.2-.042-.084-.185-.196-.306-.262-.17-.096-.383-.147-.612-.132-.115.008-.232.026-.314.096.013.091.096.135.148.192.081.09.174.189.237.28.023.034.038.074.06.113.215.367.357.801.55 1.186.314.621.786 1.055 1.767 1.013zm.218 2.86c-.007-.216-.002-.444-.017-.654-.07.019-.153.021-.219.044.006.207-.011.436.01.628.076-.005.155-.008.226-.018zm.429-.078v-.663c0-.005-.001-.01-.008-.008-.054.03-.138.031-.201.052.005.22-.013.465.008.671.07-.015.136-.032.2-.052zm.446-.175c-.006-.203.011-.43-.009-.619-.07.027-.159.034-.21.079v.628c.069 0 .146-.063.219-.088zm-1.18-3.07c.33.262.758.467 1.32.463-.021-.036-.065-.044-.097-.062-.255-.139-.464-.3-.664-.488-.604-.569-1.016-1.457-1.066-2.557-.005-.101.015-.219-.01-.322-.015-.066-.118-.177-.183-.244-.219-.228-.515-.411-.874-.436-.064-.005-.128-.002-.148.017.02.108.098.189.148.28.053.094.102.192.15.296.095.212.141.451.208.69.13.455.273.926.447 1.343.174.418.438.758.769 1.02zm1.6 2.8c-.025-.146.007-.35-.018-.497-.002-.007-.007-.01-.018-.01-.04.036-.104.049-.157.071.006.186-.012.396.008.567.051-.055.138-.073.184-.13zm-.805-3.123c.336.336.86.604 1.512.55-.356-.171-.582-.354-.821-.593-.45-.45-.752-1.204-.752-2.077 0-.399.042-.788.096-1.143.008-.057.032-.121.026-.156-.005-.029-.052-.08-.087-.131-.155-.227-.333-.408-.56-.532-.123-.068-.312-.145-.463-.097-.04.057-.01.125 0 .184.033.195.07.38.079.576.014.286-.001.577.017.864.034.537.09 1.071.262 1.49.174.424.398.772.691 1.065zm1.521 3.62v-.34c-.082-.016-.149-.05-.2-.095v.243c.063.067.122.14.2.192zm.192-7.431c.031-.093.089-.194.088-.262-.001-.05-.04-.123-.07-.192-.089-.204-.202-.343-.332-.471-.173-.17-.41-.354-.7-.385-.006.112-.02.29-.034.437-.041.404-.11.8-.175 1.178-.094.534-.188 1.087-.15 1.64.021.283.107.551.202.794.188.48.472.873.857 1.133.2.136.442.22.734.262-.233-.258-.398-.542-.524-.873-.132-.342-.195-.712-.228-1.168-.031-.438.037-.878.114-1.265.055-.278.132-.57.218-.828zm.166 15.177c.01-.052-.016-.06-.061-.079-.064-.027-.078-.017-.114-.026-.238-.06-.464-.104-.699-.14-.648-.096-1.27-.06-1.879.027-.748.107-1.6.19-2.395.043-.002.057-.018.1-.027.149 1.406.01 2.963-.017 4.389-.018.248 0 .574-.033.725.035.03.014.054.054.061.009zm.044-.253c0-.043.026-.062.026-.105-.12-.064-.261-.083-.402-.122-.41-.113-.908-.214-1.424-.183-.294.017-.565.06-.84.113-.27.053-.54.106-.821.14-.285.034-.605.044-.91.044-.281 0-.547-.031-.786-.053-.01 0-.066-.04-.062.009-.01.044.04.046.062.052.032.01.079.014.104.018.51.066 1.042.068 1.557.017.58-.057 1.137-.17 1.73-.175.486-.003.963.072 1.364.158.135.028.268.077.402.087zm.088-7.187c.001-.192-.016-.363-.01-.559-.087.004-.138-.03-.227-.026.001.154.003.311-.008.454.066.06.144.106.245.131zm.026 6.899c.014-.059.052-.093.07-.148-.427-.21-.968-.328-1.574-.323-1.363.01-2.518.456-3.924.367.614.123 1.285.115 1.896.034.611-.08 1.16-.255 1.8-.253.646.002 1.197.167 1.732.323zm.201-.332c.009-.046-.045-.053-.07-.07-.429-.284-1.123-.381-1.836-.34-1.29.075-2.48.442-3.855.402.044.032.107.038.158.043.466.047.915-.006 1.337-.061.967-.124 1.903-.344 2.963-.279.446.028.841.129 1.163.27.042.02.09.073.14.035zm.175-.227c.031-.032-.02-.057-.035-.069-.027-.021-.073-.038-.097-.052-.181-.108-.397-.204-.62-.262-.504-.132-1.092-.135-1.652-.087-1.253.106-2.374.489-3.707.41.02.068.081.07.14.078.21.026.442.016.647 0 .842-.064 1.616-.186 2.37-.297.52-.076 1.102-.131 1.643-.078.469.046.876.17 1.188.357.045.027.079.08.123 0zm.122-6.166c.013-.216.008-.451.009-.68-.066-.01-.192-.013-.289-.018.006.21-.011.442.01.637.093.017.163.058.27.06zm.07 5.931c.027-.85.088-1.668.114-2.52-.324-.26-.823-.387-1.364-.358-.249.012-.466.051-.69.104-.641.152-1.411.205-2.203.157-.347.409-.679.848-1.023 1.274-.32.393-.652.802-.953 1.195-.017.022-.068.06-.035.078 1.166.038 2.125-.253 3.191-.375.551-.063 1.146-.101 1.678-.026.258.037.497.1.708.183.194.077.361.18.516.27.01.007.042.054.06.018zm.472-5.87c.014-.247.018-.506.018-.768-.058-.023-.103-.06-.158-.087-.058.026-.099.07-.14.114.005.248-.016.473-.008.724.096.005.182.021.288.017zm.027.34c-.116.002-.228 0-.324-.017-.039.038-.055.094-.078.157-.051.131-.104.276-.141.419-.156.605-.158 1.391-.008 2.014.101.058.195.125.305.174.026-.02.053-.04.088-.052-.1-.43-.161-.909-.131-1.412.028-.475.17-.918.289-1.283zm.287 6.935c.022-.11-.039-.247-.078-.341-.133-.318-.313-.55-.516-.768-.009 0-.01-.006-.017-.008-.006 0-.01.001-.01.008-.18.206-.395.45-.515.75-.04.103-.085.26-.07.35.011.066.096.16.158.192.202.105.741.084.918-.026.049-.03.12-.106.13-.157zm.22-7.981c-.001-.023.015-.067-.019-.079-.076.013-.173.007-.244.026-.007.243-.011.489-.009.742.093-.012.184-.026.271-.044-.005-.207.007-.449 0-.645zm.227-4.118c.16-.481.253-1.12.218-1.753-.034-.605-.186-1.15-.358-1.631-.174-.487-.392-.942-.743-1.247 0-.006-.002-.01-.01-.01-.347.33-.57.795-.768 1.292-.197.492-.34 1.035-.393 1.622-.057.614.036 1.287.209 1.771.132.37.313.7.612.907.085.059.244.158.35.158.105-.002.244-.1.332-.167.304-.232.426-.568.55-.942zm.262 4.615v-.637c-.092-.004-.148.027-.236.026v.69c.089-.016.162-.048.236-.079zm.463-.375c.017-.077-.026-.337-.018-.401-.05.039-.124.056-.192.078v.515c.047-.035.192-.112.21-.192zm-.332-.637c.25-.144.465-.396.428-.785-.026-.276-.177-.53-.315-.698-.21-.26-.505-.473-.856-.584-.213-.068-.496-.078-.752-.061-.324.02-.607.109-.813.235-.217.133-.36.295-.515.514-.119.168-.24.366-.237.611.006.504.464.9.97.9.158-.002.314-.04.447-.08.127-.038.248-.095.367-.157.203.188.62.307.97.236.096-.02.21-.076.306-.131zm.935-4.667c.057-1.07-.224-2.318.105-3.22-.187.003-.311.058-.446.132-.31.172-.581.41-.76.68.216.594.387 1.333.385 2.103-.004.998-.296 1.872-.752 2.416.076.02.118.092.2.088.025-.002.09-.045.14-.07.338-.178.6-.45.77-.751.214-.378.33-.85.358-1.378zm.21 5.478v-.419c-.086-.045-.156-.106-.27-.121.01.093.008.26.008.392.08.055.163.11.262.148zm.48.149v-.393c-.097-.012-.165-.057-.253-.079v.41c.083.023.157.053.253.062zm.473.07v-.358c-.074-.023-.165-.027-.245-.044v.375c.074.016.158.022.245.026zm.157-7.206c.03-.252.093-.502.08-.75-.13-.015-.24.03-.36.078-.09.037-.176.081-.253.13-.059.04-.145.097-.218.158-.06.05-.171.149-.184.2-.019.074.001.209.009.315.02.316.038.636.034.925-.005.442-.04.82-.13 1.177-.14.55-.36.956-.673 1.282-.103.106-.23.186-.35.306.49-.042.857-.287 1.11-.568.258-.286.45-.682.585-1.09.07-.21.12-.445.158-.68.08-.482.133-.986.192-1.483zm.271 7.188c.018-.096-.01-.214 0-.332h-.2v.35c.073 0 .133-.012.2-.018zm.402-.113c.007-.092-.014-.155-.009-.245-.062 0-.117.005-.166.018.005.093-.01.209.01.288.054-.02.12-.03.165-.061zm.612-.384c-.134.029-.258.068-.393.096.001.064-.005.156.009.182.15-.071.273-.167.384-.278zm.306-.471c-.253-.133-.46-.301-.63-.515-.123-.158-.23-.331-.349-.488-.166-.22-.319-.451-.542-.576-.197-.11-.472-.118-.76-.132-.4-.018-.76-.066-1.128-.113 0-.005-.002-.01-.009-.008-.02.022.007.022.009.026.152.328.399.683.437 1.169.013.174.017.35.096.444.052.063.188.11.297.158.33.144.66.256 1.058.305.55.068 1.228.008 1.521-.27zm-.323-5.775c.045-.086.102-.167.122-.262-.262-.056-.477.017-.709.122-.126.058-.32.142-.357.21-.028.05-.03.168-.045.261-.042.282-.085.56-.13.794-.066.338-.132.708-.254.977-.136.302-.275.564-.437.793-.162.231-.371.412-.585.576 0 0-.048.009-.018.027.45-.039.786-.258 1.04-.532.245-.265.496-.588.656-.925.172-.365.271-.787.385-1.195.056-.206.117-.403.2-.584.042-.092.086-.176.132-.262zm1.057 13.267c-1.42.07-2.443-.458-3.864-.392-.315.014-.626.068-.908.165-.188.065-.38.16-.542.262-.03.019-.109.045-.097.087.001 0 .017.037.026.043.03.02.07-.004.123-.034.302-.17.642-.295 1.006-.367.965-.19 1.952.046 2.806.184.447.072.957.125 1.45.052zm-.192.576c.034-.004.135.01.114-.07-.02-.031-.07-.011-.088-.009-.594.07-1.136-.085-1.713-.165-.634-.089-1.364-.167-2.037-.087-.406.047-.792.156-1.11.287-.055.023-.172.045-.131.131.04.036.088-.007.122-.018.33-.096.67-.173 1.032-.218.88-.109 1.824.007 2.648.114.356.046.791.081 1.163.035zm.035-.271c.044-.009.121-.002.105-.095-1.302.101-2.326-.376-3.654-.314-.554.025-1.05.176-1.433.383-.053.028-.159.053-.114.113.032.044.052.005.105-.017.629-.266 1.397-.396 2.281-.331.442.032.867.07 1.268.14.194.033.398.074.603.104.266.038.597.07.84.017zm.157.54c-.02-.02-.03-.049-.035-.086-.293.022-.579.035-.866.017-.277-.018-.549-.06-.829-.096-.544-.068-1.17-.123-1.766-.095-.507.023-.947.1-1.355.209-.059.015-.128.023-.167.06 1.611-.019 3.257.01 4.87.01.049 0 .105.014.148-.018zm.035-1.35c0-.06-.041-.11-.07-.158-.416-.71-.868-1.44-1.285-2.137-.03-.05-.045-.114-.095-.149-.566.062-.971-.018-1.382-.14-.39-.113-.772-.305-1.232-.33-.577-.032-1.06.075-1.47.261-.067.031-.256.1-.279.166-.024.07-.003.223-.009.331-.032.675-.07 1.266-.095 1.946-.003.06-.028.194-.018.244.003.017.035.052.035.052.038.02.095-.023.14-.052.312-.204.676-.352 1.092-.419.495-.08 1.121-.061 1.61 0 .519.066.999.16 1.485.245.492.086.998.169 1.573.14zm-.131-11.637c.044-.057.126-.114.105-.2-.067-.034-.14-.016-.21-.01-.336.037-.632.2-.83.402-.073.074-.156.157-.192.227-.027.052-.034.118-.053.175-.062.182-.133.34-.21.496-.104.21-.232.38-.376.567-.242.317-.502.609-.84.812-.045.027-.109.039-.147.087.31.033.574-.018.777-.096.231-.088.44-.209.603-.348.464-.394.697-.992.997-1.536.116-.21.24-.4.376-.576zm.131 11.95c.037-.01.082-.014.079-.07-.723.056-1.502-.105-2.203-.227-.32-.055-.642-.115-.98-.156-.342-.044-.71-.077-1.083-.052-.619.039-1.103.197-1.503.47.04.062.074.129.14.166.412-.282.9-.485 1.538-.523.727-.044 1.405.085 2.072.2.477.083.98.198 1.52.201.134 0 .308.02.42-.009zm.507-12.421c.138.074.258.144.298.314-.36.123-.613.383-.823.663-.423.569-.673 1.3-1.188 1.78-.254.236-.567.413-.961.523.06.064.141.092.209.14.268.188.449.465.63.759.124.202.284.412.498.54.182.11.472.088.734.148-.03.185-.128.352-.236.498-.1.134-.228.264-.35.375-.243.222-.558.432-.9.55-.182.063-.378.102-.594.13-.227.03-.447.012-.674-.017-.398-.05-.855-.13-1.11-.34-.051-.043-.085-.095-.122-.166-.215.427-.684.603-1.232.698-.306.63-.478 1.73-.236 2.555.436-.157.936-.271 1.52-.235.24.014.458.082.673.147.415.126.806.29 1.303.332.246.02.497.003.76-.035.577.968 1.159 1.933 1.73 2.905-.127.294-.402.753-.2 1.125.08.148.23.217.332.358-1.365.02-2.765 0-4.178 0h-1.031c-.121 0-.26-.02-.35 0-.071.016-.14.106-.218.157-.217.14-.525.251-.875.253-.486.002-.796-.202-1.084-.418-1.813.013-3.635.018-5.454.026.086-.182.27-.293.21-.585-.07-.332-.38-.666-.508-.89.039-.072.091-.137.14-.2.145-.185.303-.377.455-.568.601-.75 1.205-1.517 1.818-2.267.606.05 1.16.033 1.696-.035.262-.034.504-.086.752-.14.43-.094.934-.11 1.355 0-.07-.408-.098-.901-.053-1.352.045-.445.169-.843.298-1.177-.4-.106-.823-.251-1.12-.514-.035-.033-.08-.088-.13-.14-.038-.038-.109-.117-.15-.122-.031-.005-.11.03-.174.052-.358.128-.77.283-1.232.314-.334.022-.631-.005-.883-.096-.367-.131-.674-.28-.953-.506-.174-.14-.329-.284-.472-.497-.046-.068-.165-.242-.14-.34.016-.062.148-.1.227-.14.244-.125.377-.363.508-.593.183-.325.416-.566.672-.794-.414-.1-.738-.322-.979-.601-.399-.465-.536-1.174-.892-1.693-.09-.132-.17-.259-.287-.357-.116-.098-.25-.16-.385-.262.085-.263.292-.465.586-.55.299-.086.706-.065.97.061-.071-.233-.157-.438-.271-.619-.117-.184-.276-.318-.403-.488.154-.191.53-.252.883-.193.402.069.721.269.918.515-.014-.492-.132-.86-.27-1.23-.02-.05-.054-.094-.045-.148.143-.096.363-.081.542-.07.56.036.965.31 1.233.628.055-.296.118-.679.14-1.02.013-.208-.06-.374-.079-.541.903-.035 1.49.321 1.862.846.185-.354.399-.702.63-1.02.08-.113.175-.252.262-.324.355.421.663.892.909 1.422.04.01.073-.038.096-.06.406-.406.99-.833 1.862-.654-.134.395-.243.815-.271 1.316.058-.008.104-.061.157-.095.254-.167.571-.31.988-.323.156-.005.333-.004.437.087-.005.098-.058.18-.087.27-.087.26-.138.553-.193.864.073-.013.137-.058.219-.088.075-.027.16-.048.244-.069.292-.073.563-.113.883-.035.108.026.277.098.28.184.002.059-.156.208-.192.252-.206.246-.348.542-.446.881.06-.009.111-.053.175-.078.36-.147.988-.17 1.337.017z"/>
        <path fill="#F6F9FF" d="M25.45 25.204c.004.056-.04.06-.078.07-.112.029-.286.01-.42.01-.54-.004-1.043-.12-1.52-.201-.667-.116-1.345-.245-2.072-.201-.638.038-1.126.241-1.538.523-.066-.037-.1-.104-.14-.166.4-.273.884-.431 1.503-.47.373-.025.741.008 1.084.052.337.041.66.1.98.156.7.122 1.48.283 2.202.227M25.346 13.123c.02.087-.061.144-.105.2-.136.177-.26.367-.376.577-.3.544-.533 1.142-.997 1.536-.164.139-.372.26-.603.348-.203.078-.466.13-.777.096.038-.048.102-.06.148-.087.337-.203.597-.495.84-.812.143-.187.271-.357.375-.567.077-.156.148-.314.21-.496.02-.057.026-.123.053-.175.036-.07.119-.153.192-.227.198-.201.494-.365.83-.401.07-.007.143-.025.21.008"/>
        <path fill="#FFFFFE" d="M20.442 22.666c-.005-.056-.03-.092-.035-.149-.182.021-.316.092-.455.158.022.057.056.102.106.13.114-.06.24-.108.384-.14zm.132.864c-.03-.052-.033-.131-.088-.158-.002.007-.013.016-.018.018-.118.045-.269.06-.35.148.046.036.065.1.123.122.103-.05.22-.089.333-.13zm.113.427c-.012-.067.001-.158-.053-.184-.176.028-.314.094-.445.167.034.059.079.107.13.147.112-.053.224-.108.368-.13zm.079-.89c-.003-.052.006-.117-.01-.157-.296.003-.525.074-.724.175.026.051.056.1.104.13.181-.078.377-.141.63-.148zm.183-.418c.006-.053.023-.095.018-.158-.124.002-.25-.038-.36 0 .015.045.019.1.027.149.109-.001.218-.002.315.009zm.297.836c-.003-.06.012-.104.017-.156-.145-.027-.36-.025-.497.009.012.051.02.108.035.156.153-.017.28-.009.445-.009zm.062.42c.014-.05.006-.122.017-.175-.128-.028-.285-.013-.41.01.014.054.013.126.034.173.122 0 .23-.014.359-.008zm.07-.786c.015-.048.033-.094.034-.156-.117-.031-.256-.041-.384-.062-.025.036-.016.106-.018.166.133.007.25.03.367.052zm.21-.375c.007-.055.038-.09.043-.148-.134-.047-.282-.08-.454-.087-.015.038-.015.128 0 .166.173-.013.275.045.41.069zm.244.838c.02-.052.04-.106.053-.166-.136-.016-.25-.053-.385-.07-.015.052-.029.105-.035.166.127.018.24.051.367.07zm.079.427c.015-.063.04-.116.052-.183-.126-.035-.266-.054-.402-.079-.02.053-.03.115-.035.184.125.03.27.039.385.078zm.087-.785c.016-.048.035-.093.036-.157-.13-.026-.265-.044-.386-.078-.018.048-.037.096-.043.156.124.034.257.058.393.08zm.088-.384c.006-.05.03-.113.017-.156-.114 0-.188-.04-.298-.044-.02.042-.023.104-.043.148.104.017.229.055.324.052zm.367.846c.008-.048.036-.117.026-.156-.137-.022-.26-.055-.402-.07-.012.055-.033.1-.043.157.13.026.289.07.419.07zm.192.445c.002-.067.026-.114.026-.183-.168-.023-.332-.052-.498-.078-.014.06-.037.114-.044.183.171.027.337.06.516.078zm.044-.828c0-.055.014-.096.008-.158-.141-.018-.295-.024-.428-.052-.018.05-.029.105-.035.166.157.009.289.043.455.044zm.034-.366c.01-.048.012-.1.01-.158-.13-.016-.252-.039-.385-.052-.012.046-.019.098-.018.157.135.013.26.038.393.053zm.464.828c.006-.062-.013-.098-.008-.157-.157-.01-.3-.033-.447-.052-.01.053-.023.103-.026.165.153.016.317.067.48.044zm.122-.785c.002-.06-.004-.112-.018-.157-.106.005-.194-.009-.287-.018-.004.059-.036.087-.035.149.092.03.217.027.34.026zm.062 1.23c.007-.039.008-.099.008-.183-.17-.011-.327-.034-.489-.053-.024.049-.025.12-.035.184.168.02.33.048.516.052zm.2-.82c-.004-.05.01-.12-.008-.157-.217.004-.386-.04-.585-.053-.011.049-.017.1-.027.149.183.039.422.067.62.061zm.385.375c-.017-.064-.037-.126-.079-.165-.116.057-.29.046-.419.008-.01.06-.046.094-.052.157.15.064.396.05.55 0zm.14.541c.013-.055.013-.12.018-.183-.165-.014-.325-.031-.481-.053-.018.058-.043.108-.044.184.165.021.327.046.507.052zm1.206.497c.029.049.07.098.07.157-.575.03-1.081-.053-1.573-.14-.486-.085-.966-.178-1.486-.244-.488-.061-1.114-.08-1.609 0-.416.067-.78.215-1.092.42-.045.028-.102.071-.14.051 0 0-.032-.035-.035-.052-.01-.05.015-.183.018-.244.025-.68.063-1.271.095-1.946.006-.108-.015-.26.01-.331.022-.065.21-.135.279-.166.408-.186.892-.293 1.469-.261.46.025.842.217 1.232.33.41.122.816.202 1.382.14.05.035.065.098.095.149.417.698.869 1.426 1.285 2.137z"/>
        <path fill="#F6F9FF" d="M25.302 26.225c.004.037.016.066.035.087-.043.032-.1.018-.148.018-1.613 0-3.259-.029-4.87-.01.039-.037.108-.045.167-.06.408-.11.848-.186 1.355-.21.596-.027 1.222.028 1.766.096.28.035.552.078.83.096.286.018.572.005.865-.017M25.285 25.676c.016.093-.061.086-.105.095-.242.053-.573.021-.84-.017-.204-.03-.408-.071-.602-.105-.4-.069-.826-.107-1.268-.139-.884-.065-1.652.065-2.281.331-.053.022-.073.061-.105.017-.045-.06.061-.085.114-.113.382-.207.88-.358 1.433-.383 1.328-.062 2.352.415 3.654.314"/>
        <path fill="#F6F9FF" d="M25.259 25.972c.021.08-.08.066-.114.07-.372.046-.807.011-1.163-.035-.824-.107-1.769-.223-2.648-.114-.362.045-.702.122-1.032.218-.034.01-.082.054-.122.018-.041-.086.076-.108.131-.131.318-.13.704-.24 1.11-.287.673-.08 1.403-.002 2.037.087.577.08 1.12.236 1.713.165.018-.002.069-.022.088.009M21.473 25.074c1.421-.066 2.444.461 3.864.392-.493.073-1.003.02-1.45-.052-.854-.138-1.84-.374-2.806-.184-.364.072-.704.197-1.006.367-.053.03-.093.055-.123.034-.01-.006-.025-.043-.026-.043-.012-.042.067-.068.097-.087.162-.103.354-.197.542-.262.282-.097.593-.15.908-.165M24.402 11.937c-.02.095-.077.176-.122.262-.046.086-.09.17-.131.262-.084.18-.145.378-.201.584-.114.408-.213.83-.385 1.195-.16.337-.41.66-.656.925-.254.274-.59.493-1.04.532-.03-.018.018-.027.018-.027.214-.164.423-.345.585-.576.162-.229.3-.491.437-.793.122-.27.188-.639.254-.977.045-.234.088-.512.13-.794.015-.093.017-.21.045-.262.036-.067.23-.15.357-.209.232-.105.447-.178.71-.122"/>
        <path fill="#5D6585" d="M24.114 24.123c-.005.062-.005.128-.018.183-.18-.006-.342-.031-.507-.052 0-.076.026-.126.044-.184.156.022.316.04.48.053"/>
        <path fill="#F6F9FF" d="M23.974 17.46c.168.213.376.381.63.514-.294.278-.972.338-1.522.27-.399-.049-.727-.16-1.058-.305-.109-.048-.245-.095-.297-.158-.079-.094-.083-.27-.096-.444-.038-.486-.285-.841-.437-1.169-.002-.004-.03-.004-.009-.026.007-.002.008.003.009.008.368.047.728.095 1.127.113.289.014.564.022.761.132.223.125.376.355.542.576.12.157.226.33.35.488M23.904 18.54c.135-.027.26-.066.393-.095-.11.11-.235.207-.384.278-.014-.026-.008-.118-.01-.182"/>
        <path fill="#5D6585" d="M23.877 23.6c.042.039.062.1.079.165-.154.05-.4.064-.55 0 .006-.063.042-.098.052-.157.13.038.303.049.42-.008"/>
        <path fill="#F6F9FF" d="M23.676 18.584c-.005.09.016.153.01.245-.046.03-.112.04-.166.06-.02-.078-.005-.194-.01-.287.049-.013.104-.019.166-.018"/>
        <path fill="#5D6585" d="M23.563 23.233c.019.036.004.106.009.157-.199.006-.438-.022-.621-.061.01-.048.016-.1.027-.149.199.013.368.057.585.053M23.379 24.027c0 .084-.001.144-.008.183-.187-.004-.348-.031-.516-.052.01-.063.011-.135.035-.184.162.019.32.042.489.053M23.291 22.823c.014.045.02.097.018.157-.123.001-.248.004-.34-.026-.001-.062.031-.09.035-.149.093.01.181.023.287.018"/>
        <path fill="#F6F9FF" d="M23.283 18.61c-.01.118.018.236 0 .332-.067.006-.127.018-.2.017v-.349h.2"/>
        <path fill="#5D6585" d="M23.179 23.608c-.005.06.014.095.008.157-.164.023-.328-.028-.48-.044.002-.062.015-.112.025-.165.147.02.29.043.447.052"/>
        <path fill="#F6F9FF" d="M23.091 11.004c.014.248-.049.498-.08.75-.058.497-.112 1.001-.191 1.483-.039.235-.088.47-.158.68-.136.408-.327.804-.585 1.09-.253.28-.62.526-1.11.568.12-.12.247-.2.35-.306.313-.326.533-.732.672-1.282.091-.357.126-.735.131-1.177.004-.289-.014-.609-.034-.925-.008-.106-.028-.24-.01-.314.014-.052.124-.151.185-.2.073-.062.159-.12.218-.158.077-.05.163-.094.253-.13.12-.049.23-.094.36-.079M22.855 18.602v.357c-.087-.004-.17-.01-.245-.026v-.375c.08.017.171.021.245.044"/>
        <path fill="#5D6585" d="M22.732 22.779c.003.058 0 .11-.009.158-.134-.015-.258-.04-.393-.053 0-.06.006-.111.018-.157.133.013.255.036.384.052M22.697 23.145c.006.062-.007.103-.008.158-.166-.001-.298-.035-.455-.044.006-.06.017-.117.035-.166.133.028.287.034.428.052M22.671 23.948c0 .07-.024.116-.026.183-.18-.018-.345-.05-.516-.078.007-.07.03-.122.044-.183.166.026.33.055.498.078M22.479 23.53c.01.04-.018.108-.026.156-.13.002-.289-.043-.42-.07.011-.056.032-.101.044-.157.142.016.265.05.402.07"/>
        <path fill="#F6F9FF" d="M22.382 18.497v.393c-.096-.009-.17-.04-.253-.061v-.41c.088.021.156.066.253.078"/>
        <path fill="#5D6585" d="M22.103 22.684c.013.043-.01.106-.017.156-.095.003-.22-.035-.324-.052.02-.044.022-.106.043-.148.11.005.184.044.298.044M22.034 23.067c-.001.064-.02.109-.036.157-.136-.02-.27-.045-.393-.079.006-.06.025-.108.043-.156.12.034.256.052.386.078M21.963 23.826c-.011.067-.037.12-.052.183-.115-.039-.26-.049-.385-.078.004-.069.015-.13.035-.184.136.025.276.044.402.08"/>
        <path fill="#F6F9FF" d="M21.902 18.322v.42c-.099-.039-.181-.094-.262-.149 0-.133.001-.299-.009-.392.115.015.185.076.27.121"/>
        <path fill="#5D6585" d="M21.885 23.416c-.013.06-.032.114-.053.166-.127-.019-.24-.052-.367-.07.006-.06.02-.114.035-.166.135.017.249.054.385.07"/>
        <path fill="#F6F9FF" d="M21.797 10.044c-.33.901-.048 2.148-.105 3.22-.028.527-.144 1-.358 1.377-.17.3-.432.573-.77.75-.05.026-.115.069-.14.07-.082.005-.124-.066-.2-.087.456-.544.748-1.418.752-2.416.002-.77-.17-1.509-.385-2.102.179-.271.45-.51.76-.68.135-.075.259-.13.446-.132"/>
        <path fill="#5D6585" d="M21.631 22.596c-.005.058-.036.093-.044.148-.135-.024-.237-.082-.41-.07-.015-.037-.015-.127 0-.165.172.007.32.04.454.087M21.412 22.963c0 .062-.02.108-.035.156-.118-.022-.234-.045-.367-.052.002-.06-.007-.13.018-.166.128.02.267.03.384.062M21.325 23.73c-.01.053-.003.125-.017.175-.129-.006-.237.008-.36.008-.02-.047-.019-.12-.034-.174.126-.022.283-.037.41-.009M21.263 23.329c-.005.052-.02.096-.017.156-.165 0-.292-.008-.445.01-.015-.05-.023-.106-.035-.157.136-.034.352-.036.497-.01"/>
        <path fill="#F6F9FF" d="M21.185 17.145c.037.39-.178.64-.428.785-.097.055-.21.112-.306.131-.35.071-.767-.048-.97-.236-.119.062-.24.119-.367.157-.133.04-.289.078-.446.08-.507 0-.965-.396-.97-.9-.003-.245.117-.443.236-.61.155-.22.298-.382.515-.515.206-.126.49-.216.813-.235.256-.017.539-.007.752.06.351.112.645.325.856.585.138.169.289.422.315.698M21.071 18.166c-.008.064.035.324.018.4-.018.08-.163.158-.21.193v-.515c.068-.022.142-.04.192-.078"/>
        <path fill="#5D6585" d="M20.967 22.491c.005.063-.012.105-.018.158-.097-.011-.206-.01-.315-.01-.008-.048-.012-.103-.026-.148.11-.038.235.002.359 0M20.757 22.91c.015.04.006.105.009.157-.253.007-.449.07-.63.148-.048-.03-.078-.079-.104-.13.2-.101.428-.172.725-.175M20.634 23.773c.054.026.041.117.053.184-.144.022-.256.077-.368.13-.051-.04-.096-.088-.13-.147.131-.073.269-.139.445-.167"/>
        <path fill="#F6F9FF" d="M20.626 18.305v.637c-.074.031-.147.063-.236.078v-.689c.088.001.144-.03.236-.026M20.582 12.574c.035.632-.057 1.272-.218 1.753-.125.374-.247.71-.551.942-.088.067-.227.165-.332.167-.106 0-.265-.1-.35-.158-.3-.208-.48-.537-.612-.907-.173-.484-.266-1.157-.21-1.77.055-.588.197-1.131.394-1.623.198-.497.421-.963.769-1.291.007-.002.008.003.009.009.351.305.569.76.743 1.247.172.482.324 1.026.358 1.631"/>
        <path fill="#5D6585" d="M20.486 23.372c.055.027.057.106.088.158-.114.041-.23.08-.333.13-.058-.023-.077-.086-.123-.122.081-.088.232-.103.35-.148.005-.002.016-.011.018-.018M20.407 22.517c.006.057.03.093.035.149-.144.03-.27.08-.384.14-.05-.03-.084-.074-.106-.131.139-.066.273-.137.455-.158"/>
        <path fill="#F6F9FF" d="M20.118 18.366c.034.012.018.056.018.079.007.196-.005.438 0 .645-.087.018-.178.032-.271.044-.002-.253.002-.499.009-.742.071-.02.168-.013.244-.026M19.839 26.085c.04.094.1.232.078.34-.01.052-.081.127-.13.158-.177.11-.716.13-.918.026-.062-.032-.147-.126-.157-.192-.016-.09.03-.247.07-.35.119-.3.334-.544.515-.75-.002-.007.003-.008.009-.008.007.002.008.008.017.008.203.217.383.45.516.768M19.306 19.474c.096.018.208.019.324.017-.119.365-.261.808-.289 1.283-.03.503.03.982.13 1.412-.034.012-.061.031-.087.052-.11-.05-.204-.116-.305-.174-.15-.623-.148-1.409.008-2.014.037-.143.09-.288.14-.419.024-.063.04-.119.079-.157M19.62 18.383c0 .262-.003.52-.017.768-.106.004-.192-.012-.288-.017-.008-.251.013-.476.008-.724.041-.044.082-.088.14-.114.055.027.1.064.158.087M15.083 24.228c.007-.071-.01-.119-.008-.184h-.586c-.032.035-.011.122-.017.184.207.012.402.005.611 0zm.193-.446c.014-.037.014-.128 0-.165-.172.006-.315-.017-.48-.017.003.064-.026.097-.018.165.16.01.322.022.498.017zm.455-.863c.004-.022.02-.114 0-.157-.102.004-.178-.017-.263-.009-.008.043-.022.12-.017.148.084.015.18.02.28.018zm.061.41c.003-.061-.003-.128-.009-.158-.22 0-.451.009-.646-.017-.004.058-.024.099-.018.166.22.007.45.032.673.009zm.034.838c-.003-.067-.011-.129-.026-.184-.165.018-.34.026-.507.044.006.06.016.118.018.183.177-.01.348-.025.515-.043zm.175-.42c.008-.045-.009-.125-.026-.174-.143.02-.295.032-.445.044.004.054-.01.126.009.165.166.001.3-.031.462-.035zm.42-.846c.003-.06-.014-.102-.018-.157-.127.007-.244.024-.384.018-.019.037-.004.106-.009.157.116.006.283-.008.411-.018zm.088.376c-.005-.057-.017-.106-.026-.158-.147.014-.297.025-.438.044-.014.039.015.1.01.157.152-.012.307-.024.454-.043zm.034.793c-.002-.067-.028-.11-.034-.174-.174.015-.337.042-.499.07.008.06.028.106.026.174.155-.004.35-.04.507-.07zm.132-.418c.002-.07-.032-.102-.035-.167-.14.022-.277.044-.411.07.013.054.018.116.035.166.133-.027.275-.045.41-.07zm.306-.829c-.005-.06-.023-.106-.036-.157-.094.024-.21.028-.305.052.01.047.012.104.026.148.111-.008.214-.024.315-.043zm.165.348c-.023-.045-.015-.123-.06-.147-.124.024-.252.045-.376.07.004.053.021.094.026.148.125-.001.289-.037.41-.07zm.018.795c-.008-.062-.02-.12-.026-.184-.148.013-.287.033-.41.07.007.07.033.124.051.183.116-.036.251-.051.385-.07zm.088-.42c-.016-.053-.01-.128-.044-.165-.124.025-.251.046-.376.07.012.06.03.115.053.166.12-.026.245-.046.367-.07zm.349-.862c-.016-.042-.02-.097-.034-.14-.148.022-.287.051-.42.087-.011.039.026.1.035.148.142-.03.298-.046.419-.095zm.14.418c0-.053-.015-.09-.009-.148-.129-.015-.279.022-.402.044.008.053.022.1.035.147.103-.003.25-.034.376-.043zm0 .855c.008-.057.036-.137.027-.184-.124-.017-.291-.029-.411 0 .011.065.017.135.043.184.113-.025.223-.011.341 0zm.175-.419c.011-.053.029-.099.035-.157-.146-.028-.346-.036-.498-.009.007.051.015.102.017.158.153-.002.304-.001.446.008zm.2-.854c.014-.046.015-.103.027-.149-.106-.026-.227-.028-.35-.018-.006.033.002.12.018.158.11-.014.193.005.306.009zm.255 1.456c.042-.048.094-.086.122-.148-.129-.08-.273-.146-.455-.175-.028.048-.03.122-.043.183.148.024.26.083.376.14zm.113-.419c.039-.045.085-.084.114-.14-.123-.057-.24-.12-.394-.148-.017.056-.049.097-.061.158.13.027.23.085.341.13zm.131-.444c.022-.052.098-.093.097-.14-.201-.103-.43-.177-.726-.183.004.06-.016.095-.01.157.258.01.461.076.64.166zm.088-.41c.028-.05.083-.074.096-.14-.14-.065-.275-.132-.446-.166-.013.05-.034.093-.043.149.143.04.274.092.393.156zm.542-.367c-.026.853-.087 1.67-.114 2.521-.019.036-.05-.011-.061-.018-.155-.09-.322-.193-.516-.27-.21-.084-.45-.146-.708-.183-.532-.075-1.127-.037-1.678.026-1.066.122-2.025.413-3.19.375-.034-.018.017-.056.034-.078.301-.393.634-.802.953-1.195.344-.426.676-.865 1.023-1.274.792.048 1.562-.005 2.203-.157.224-.053.441-.092.69-.104.541-.029 1.04.098 1.364.357zM19.07 18.41c-.001.229.004.464-.01.68-.106-.003-.176-.044-.27-.06-.02-.196-.003-.428-.009-.638.097.005.223.009.289.018"/>
        <path fill="#F6F9FF" d="M18.904 25.187c.015.012.066.037.035.07-.044.08-.078.026-.123 0-.312-.188-.719-.312-1.188-.358-.541-.053-1.122.002-1.644.078-.753.111-1.527.233-2.369.297-.205.016-.438.026-.647 0-.059-.007-.12-.01-.14-.078 1.333.079 2.454-.304 3.707-.41.56-.048 1.148-.045 1.652.087.223.058.439.154.62.262.024.014.07.03.097.052"/>
        <path fill="#F6F9FF" d="M18.694 25.414c.025.016.079.023.07.069-.05.038-.098-.015-.14-.034-.322-.142-.717-.243-1.163-.271-1.06-.065-1.996.155-2.963.279-.422.055-.871.108-1.337.061-.05-.005-.114-.011-.158-.043 1.376.04 2.564-.327 3.855-.401.713-.042 1.407.055 1.836.34"/>
        <path fill="#5D6585" d="M18.8 22.727c-.014.066-.069.09-.097.14-.119-.065-.25-.117-.393-.157.009-.056.03-.098.043-.149.17.034.306.101.446.166M18.712 23.137c.001.047-.075.088-.097.14-.178-.09-.381-.155-.638-.166-.007-.062.013-.098.009-.157.297.006.525.08.726.183"/>
        <path fill="#F6F9FF" d="M18.632 25.667c-.017.055-.055.09-.07.148-.534-.156-1.085-.321-1.73-.323-.641-.002-1.19.172-1.801.253-.611.081-1.282.089-1.896-.034 1.406.089 2.56-.357 3.924-.367.606-.005 1.147.114 1.573.323M18.528 18.357c-.007.196.01.367.009.559-.1-.025-.18-.072-.245-.131.011-.143.01-.3.008-.454.089-.004.14.03.228.026"/>
        <path fill="#5D6585" d="M18.598 23.582c-.03.055-.075.094-.114.14-.11-.046-.211-.104-.341-.131.012-.061.044-.102.061-.158.155.027.271.09.394.149"/>
        <path fill="#F6F9FF" d="M18.475 25.998c0 .043-.026.062-.026.105-.134-.01-.267-.059-.402-.087-.401-.086-.878-.161-1.363-.158-.594.005-1.152.118-1.731.175-.515.051-1.047.049-1.557-.017-.025-.004-.072-.008-.104-.018-.022-.006-.072-.008-.062-.052-.004-.049.052-.01.062-.009.24.022.505.053.787.053.304 0 .624-.01.909-.044.282-.034.552-.087.821-.14.275-.054.546-.096.84-.113.516-.03 1.013.07 1.424.183.14.039.282.058.402.122"/>
        <path fill="#F6F9FF" d="M18.344 26.277c.045.02.07.027.061.079-.007.045-.03.005-.061-.01-.15-.067-.477-.034-.725-.034-1.426 0-2.983.028-4.389.018.01-.05.025-.092.027-.149.795.147 1.647.064 2.395-.043.608-.087 1.231-.123 1.88-.027.234.036.46.08.698.14.036.009.05-.001.114.026"/>
        <path fill="#5D6585" d="M18.493 23.992c-.028.062-.08.1-.122.148-.115-.057-.228-.116-.376-.14.014-.061.015-.135.043-.183.182.029.326.094.455.175"/>
        <path fill="#F6F9FF" d="M18.327 10.917c0 .068-.057.169-.088.262-.086.259-.163.55-.218.828-.077.387-.145.827-.114 1.265.033.456.096.826.228 1.168.126.33.291.615.524.873-.292-.041-.533-.126-.734-.262-.385-.26-.669-.654-.857-1.133-.095-.243-.18-.511-.201-.795-.04-.552.055-1.105.149-1.64.066-.377.134-.773.175-1.177.014-.147.028-.325.035-.437.288.031.526.216.699.385.13.128.243.267.332.471.03.07.069.143.07.192"/>
        <path fill="#5D6585" d="M18.143 22.535c-.012.046-.013.103-.026.149-.113-.004-.196-.023-.306-.01-.016-.037-.024-.124-.017-.157.122-.01.243-.008.349.018"/>
        <path fill="#F6F9FF" d="M18.047 18.27v.34c-.078-.052-.137-.125-.2-.192v-.243c.051.045.118.079.2.095M18.038 15.54c-.652.054-1.176-.214-1.512-.55-.293-.293-.517-.641-.69-1.064-.173-.42-.23-.954-.263-1.491-.018-.287-.003-.578-.017-.864-.01-.197-.046-.381-.079-.576-.01-.059-.04-.127 0-.184.15-.048.34.029.463.097.227.124.405.305.56.532.035.052.082.102.087.13.006.036-.018.1-.026.157-.054.355-.096.744-.096 1.143 0 .873.301 1.627.752 2.077.24.239.465.422.821.593"/>
        <path fill="#5D6585" d="M17.95 23.381c-.005.058-.023.104-.034.157-.142-.01-.293-.01-.446-.008-.002-.056-.01-.107-.017-.158.152-.027.352-.02.498.01"/>
        <path fill="#F6F9FF" d="M17.811 16.116c.032.007-.018.026-.017.026-.185.182-.293.47-.437.723-.086.151-.117.316-.258.414-.305.21-.733.362-1.18.435-.517.086-1.185.104-1.77-.077.061-.026.155-.07.211-.135.321-.363.495-.899.933-1.168.299-.184.757-.21 1.216-.236.445-.026.861.019 1.302.018"/>
        <path fill="#5D6585" d="M17.768 23.773c.009.047-.02.127-.027.184-.118-.011-.228-.025-.341 0-.026-.049-.032-.12-.043-.184.12-.029.287-.017.41 0M17.732 22.954c-.006.058.01.095.01.148-.126.01-.274.04-.377.043-.013-.047-.027-.094-.035-.147.123-.022.273-.059.402-.044M17.567 22.543c.013.044.018.1.034.14-.121.05-.277.067-.42.096-.008-.048-.045-.11-.035-.148.134-.036.273-.065.42-.088"/>
        <path fill="#F6F9FF" d="M17.313 17.616c.025.147-.007.35.017.497-.046.058-.133.076-.184.13-.02-.17-.002-.38-.008-.566.053-.022.116-.035.157-.07.01-.001.016.002.018.009"/>
        <path fill="#5D6585" d="M17.208 23.381c.033.037.028.112.044.166-.122.024-.248.044-.367.07-.023-.05-.041-.105-.053-.166.125-.024.252-.045.376-.07M17.138 23.782c.005.065.018.122.026.184-.134.018-.27.033-.385.07-.018-.06-.044-.113-.052-.183.124-.038.263-.058.411-.07M17.085 23.024c.046.024.038.102.061.147-.121.034-.285.07-.41.07-.005-.053-.022-.094-.026-.148.124-.024.252-.045.375-.07"/>
        <path fill="#F6F9FF" d="M17.05 15.776c-.56.004-.989-.201-1.32-.463-.33-.262-.594-.602-.768-1.02-.174-.417-.318-.888-.447-1.344-.067-.238-.113-.477-.209-.689-.047-.104-.096-.202-.149-.297-.05-.09-.129-.171-.148-.279.02-.019.084-.022.148-.017.36.025.655.208.874.436.065.067.168.178.184.244.024.103.004.22.009.322.05 1.1.462 1.988 1.066 2.557.2.188.409.349.664.488.032.018.076.026.097.062"/>
        <path fill="#5D6585" d="M16.945 22.666c.013.051.031.098.036.157-.101.019-.204.035-.315.043-.014-.044-.016-.1-.026-.148.095-.024.21-.028.305-.052"/>
        <path fill="#F6F9FF" d="M16.902 17.764c.02.19.003.416.009.62-.073.024-.15.087-.219.087v-.628c.051-.045.14-.052.21-.079"/>
        <path fill="#5D6585" d="M16.64 23.485c.003.065.037.097.035.167-.136.024-.278.042-.411.07-.017-.051-.022-.113-.035-.166.134-.027.27-.05.41-.07M16.509 23.896c.006.063.032.107.034.174-.157.03-.352.066-.507.07.002-.068-.018-.115-.026-.174.162-.028.325-.055.499-.07M16.483 23.12c.009.05.021.1.026.157-.147.02-.302.03-.455.043.006-.057-.023-.118-.009-.157.141-.02.29-.03.438-.044"/>
        <path fill="#F6F9FF" d="M16.465 17.895v.663c-.065.02-.132.037-.201.052-.02-.206-.003-.45-.008-.671.063-.02.147-.021.2-.052.008-.002.009.003.009.008"/>
        <path fill="#5D6585" d="M16.403 22.744c.004.055.02.096.018.157-.128.01-.295.024-.41.018.004-.051-.01-.12.008-.157.14.006.257-.011.384-.018"/>
        <path fill="#F6F9FF" d="M16.02 17.982c.014.21.01.438.016.654-.071.01-.15.013-.227.018-.02-.192-.003-.421-.009-.628.066-.023.15-.025.22-.044"/>
        <path fill="#5D6585" d="M15.975 23.573c.017.049.034.13.026.174-.162.004-.296.036-.462.035-.02-.039-.005-.111-.01-.165.151-.012.303-.024.446-.044"/>
        <path fill="#F6F9FF" d="M15.757 15.732c.018.011.066.006.061.044-.98.042-1.453-.392-1.766-1.013-.194-.385-.336-.82-.55-1.186-.023-.039-.038-.079-.061-.113-.063-.091-.156-.19-.237-.28-.052-.057-.135-.1-.148-.192.082-.07.199-.088.314-.096.23-.015.442.036.612.132.12.066.264.178.306.261.029.056.034.137.052.201.056.193.112.397.175.584.084.242.173.494.298.707.226.385.568.72.944.95"/>
        <path fill="#5D6585" d="M15.8 23.983c.015.055.023.117.026.184-.167.018-.338.034-.515.043-.002-.065-.012-.123-.018-.183.166-.018.342-.026.507-.044M15.783 23.171c.006.03.012.097.01.158-.224.023-.455-.002-.674-.01-.006-.066.014-.107.018-.165.195.026.426.017.646.017M15.73 22.762c.02.043.005.135 0 .157-.1.001-.195-.003-.279-.018-.005-.028.01-.105.017-.148.085-.008.161.013.263.009"/>
        <path fill="#F6F9FF" d="M15.582 18.052c-.006.192.011.407-.009.584-.074-.01-.151-.017-.218-.034-.006-.187.008-.353.009-.533.065-.012.14-.017.218-.017"/>
        <path fill="#5D6585" d="M15.276 23.617c.014.037.014.128 0 .165-.176.005-.337-.006-.498-.017-.008-.068.021-.1.018-.165.165 0 .308.023.48.017"/>
        <path fill="#F6F9FF" d="M15.128 18.078c.014.132.014.323 0 .454-.078-.021-.15-.05-.21-.087-.017-.108-.012-.283 0-.367h.21"/>
        <path fill="#5D6585" d="M15.083 24.228c-.209.005-.404.012-.611 0 .006-.062-.015-.149.017-.184h.586c-.001.065.015.113.008.184z"/>
        <path fill="#F6F9FF" d="M14.69 18.07v.235c-.13-.06-.219-.16-.305-.262.077-.001.203.024.305.026"/>
        <path fill="#FFFFFE" d="M11.71 35.593c-.156.063-.343.094-.498.158-.052-.08-.082-.18-.114-.28.197.048.405.084.611.122M10.67 35.375c.076.148.133.315.192.48-.084.033-.175.058-.263.087-.079-.217-.18-.412-.253-.637.109.023.204.058.324.07M10.267 36.065c-.093.02-.168.058-.253.087-.145-.348-.312-.672-.454-1.02.121.023.236.054.358.078.12.281.244.559.35.855M9.681 36.265c-.025.034-.074.037-.113.053-.04.016-.078.035-.114.052-.493-.961-.983-1.927-1.46-2.905.105-.04.23-.108.324-.131.474.958.924 1.94 1.363 2.931M9.122 36.492c-.078.05-.18.076-.262.122-.08-.107-.13-.23-.192-.349-.43-.806-.872-1.647-1.303-2.469.08-.075.2-.109.298-.165h.017c.48.954.955 1.914 1.442 2.861M8.51 36.762c-.085.032-.154.08-.244.105-.494-.917-.988-1.836-1.478-2.757.058-.07.161-.095.236-.147h.018c.487.935.988 1.857 1.468 2.8"/>
        <path fill="#5D6585" d="M13.7 5.706L13.813 5.659 13.926 5.612 14.375 6.694 14.263 6.741 14.149 6.788 13.7 5.706M14.77 6.541L14.663 6.578 14.554 6.615 14.17 5.509 14.291 5.467 14.412 5.425 15.128 6.048 14.858 5.271 14.966 5.234 15.074 5.196 15.459 6.302 15.228 6.382 14.493 5.742 14.77 6.541M15.847 5.988l.2-.051c.098-.025.162-.076.193-.153.032-.078.031-.181-.002-.312-.03-.118-.075-.2-.135-.248-.06-.048-.135-.06-.225-.038l-.22.056.19.746zm-.477-.88l.119-.03.368-.094c.157-.04.287-.024.392.047.105.071.18.195.224.372.05.194.045.353-.013.476-.06.122-.17.204-.333.245l-.35.089-.118.03-.289-1.136zM16.549 4.829L16.669 4.806 16.789 4.783 17.011 5.932 16.891 5.955 16.771 5.978 16.549 4.829M17.445 5.415l.31-.04-.217-.447-.093.487zm-.08-.727l.142-.019.14-.019.567 1.107-.129.017-.129.017-.11-.225-.442.058-.044.246-.125.017-.126.017.256-1.216zM18.549 5.739L18.435 5.745 18.32 5.75 18.262 4.582 18.391 4.575 18.519 4.569 19.03 5.366 18.989 4.546 19.103 4.54 19.218 4.535 19.275 5.703 19.153 5.709 19.032 5.715 18.507 4.897 18.549 5.739M19.922 4.545L20.044 4.55 20.167 4.555 20.123 5.725 20.001 5.72 19.878 5.715 19.922 4.545M20.546 5.749L20.432 5.738 20.318 5.727 20.429 4.562 20.557 4.574 20.685 4.587 21.075 5.449 21.153 4.631 21.267 4.642 21.382 4.653 21.27 5.818 21.148 5.806 21.027 5.795 20.626 4.909 20.546 5.749M22.25 5.153c.005-.055-.011-.103-.05-.143-.037-.04-.092-.066-.162-.078-.061-.011-.112-.006-.15.014-.04.021-.064.056-.073.104-.006.034.008.064.04.09.032.024.104.06.215.106.161.068.266.131.313.19.048.059.063.142.043.25-.019.108-.077.186-.174.235-.096.048-.217.06-.363.034-.146-.026-.254-.08-.324-.163-.07-.082-.097-.185-.08-.31l.232.04c-.008.062.005.113.042.153.035.04.09.067.166.08.076.014.139.013.186-.005.048-.017.075-.047.083-.091.008-.043-.002-.078-.03-.104-.026-.026-.087-.058-.183-.098-.175-.073-.29-.14-.343-.198-.053-.058-.07-.137-.052-.237.02-.112.076-.193.169-.244.093-.052.208-.065.347-.04.129.023.228.075.297.158.069.082.097.182.085.3l-.234-.043M23 5.173L22.657 5.085 22.683 4.984 22.709 4.883 23.633 5.12 23.607 5.22 23.581 5.321 23.238 5.233 22.998 6.166 22.88 6.136 22.761 6.106 23 5.173M23.779 5.171L24.013 5.243 23.664 6.361 23.43 6.288 23.779 5.171M24.425 5.603L24.093 5.48 24.129 5.383 24.165 5.285 25.059 5.615 24.987 5.81 24.655 5.687 24.321 6.591 24.207 6.549 24.091 6.506 24.425 5.603M25.794 6.747c-.07.152-.154.247-.252.283-.099.036-.224.02-.377-.05-.146-.067-.238-.152-.276-.255-.038-.102-.023-.227.044-.373l.306-.664.11.051.112.051-.31.671c-.035.077-.044.142-.027.196.017.054.06.097.13.129.075.034.136.041.185.02.048-.02.09-.071.129-.154l.309-.67.11.05.112.051-.305.664M26.481 6.526L26.172 6.354 26.223 6.264 26.273 6.173 27.106 6.636 27.056 6.726 27.005 6.817 26.696 6.645 26.226 7.486 26.119 7.427 26.012 7.367 26.481 6.526M26.624 7.714L27.269 6.737 27.99 7.211 27.933 7.297 27.876 7.384 27.359 7.044 27.222 7.252 27.702 7.568 27.647 7.651 27.591 7.736 27.111 7.42 26.942 7.675 27.483 8.03 27.426 8.117 27.368 8.204 26.624 7.714M28.594 8.81c.09-.018.175-.076.257-.174.083-.099.126-.195.13-.287.004-.093-.033-.17-.11-.235-.076-.064-.16-.085-.25-.065-.09.02-.177.08-.26.179-.082.097-.124.191-.127.282-.003.09.034.168.111.232.077.065.16.087.25.069zm-.592-.298c-.007-.15.05-.296.17-.44.123-.146.26-.23.41-.251.15-.021.29.024.423.134.133.111.202.242.208.393.006.151-.053.3-.176.446-.12.144-.255.226-.403.245-.149.02-.29-.026-.422-.137-.133-.11-.203-.24-.21-.39zM28.778 9.352L29.6 8.516 30.196 9.1 30.123 9.174 30.05 9.249 29.629 8.836 29.443 9.025 29.81 9.385 29.739 9.456 29.668 9.529 29.301 9.169 28.953 9.523 28.866 9.438 28.778 9.352M30.647 9.921L30.42 9.649 30.5 9.583 30.581 9.516 31.191 10.248 31.111 10.315 31.03 10.381 30.804 10.109 30.062 10.725 29.984 10.631 29.905 10.537 30.647 9.921M30.351 11.082L31.306 10.401 31.809 11.103 31.725 11.163 31.639 11.224 31.279 10.721 31.077 10.865 31.411 11.331 31.329 11.389 31.246 11.448 30.912 10.982 30.663 11.159 31.039 11.684 30.955 11.745 30.869 11.806 30.351 11.082M31.813 12.565c-.124.057-.243.067-.358.03-.116-.037-.21-.116-.282-.236-.085-.141-.106-.282-.061-.421.044-.14.146-.258.307-.354.164-.098.32-.135.466-.11.146.026.261.109.346.25.072.12.1.237.082.354-.017.117-.077.215-.18.295l-.125-.209c.05-.04.08-.089.087-.148.008-.059-.006-.119-.043-.18-.047-.078-.115-.12-.204-.128-.089-.006-.188.023-.299.09-.107.064-.178.136-.213.217-.034.08-.027.16.02.238.037.061.085.101.145.12.06.019.122.013.186-.017l.126.21M32.582 12.389L32.636 12.498 32.69 12.608 32.296 12.802 32.499 13.214 32.893 13.02 32.947 13.129 33.001 13.239 31.947 13.756 31.84 13.537 32.317 13.303 32.114 12.891 31.637 13.125 31.583 13.016 31.529 12.906 32.582 12.389M32.112 14.154L32.029 13.941 33.123 13.516 33.216 13.755 32.62 14.491 33.387 14.193 33.428 14.299 33.47 14.406 32.377 14.831 32.333 14.717 32.288 14.604 32.901 13.847 32.112 14.154M32.927 15.663c.084.034.187.033.31-.002.124-.036.213-.092.268-.166.054-.075.068-.16.04-.256-.028-.096-.085-.16-.171-.194-.087-.033-.192-.032-.316.004-.122.035-.21.09-.263.164-.053.074-.065.159-.037.255.028.095.084.16.169.195zm-.326-.577c.078-.128.207-.219.387-.271.184-.053.344-.047.48.019.137.066.229.182.277.347.049.166.033.313-.046.442-.08.128-.212.22-.396.273-.18.052-.337.045-.471-.021-.135-.067-.226-.183-.275-.35-.048-.164-.033-.311.044-.44zM32.777 16.216L33.927 15.981 33.951 16.1 33.976 16.22 33.031 16.414 33.148 16.985 33.046 17.005 32.944 17.026 32.777 16.216M33.336 17.83c.078.046.18.062.307.046.129-.016.226-.056.292-.121.066-.065.093-.147.08-.246-.012-.1-.058-.172-.138-.219-.08-.047-.184-.062-.313-.046-.126.016-.222.056-.286.12-.064.065-.09.147-.078.246.013.099.058.172.136.22zm-.23-.622c.098-.114.24-.183.426-.206.19-.024.348.008.472.095.124.086.197.215.218.386.022.171-.017.314-.117.429-.099.114-.243.183-.433.206-.187.024-.341-.008-.463-.095s-.194-.216-.216-.388c-.02-.17.017-.313.114-.427zM33.09 18.852c-.005-.17.045-.308.152-.412.106-.103.253-.159.441-.165.192-.007.345.04.461.14.116.1.177.24.184.417.004.142-.027.26-.095.355-.068.095-.163.152-.284.171l-.008-.245c.05-.008.095-.038.132-.09.037-.053.054-.11.052-.171-.004-.107-.043-.189-.12-.246-.075-.058-.178-.084-.309-.08-.133.005-.233.037-.3.097-.068.06-.1.146-.096.257v-.001c.003.095.042.167.116.218.042.028.09.048.147.06h.002l-.01-.276.202-.007.017.49-.632.022-.006-.163.151-.029-.02-.014c-.113-.078-.172-.188-.177-.329v.001M33.564 19.838L34.313 19.462 34.3 19.752 33.782 19.974 33.78 19.974 34.28 20.224 34.274 20.363 34.268 20.501 33.558 20.083 33.112 20.064 33.123 19.819 33.564 19.838M33.71 21.342l-.043.291c-.01.064-.005.114.013.149.018.035.05.057.095.064.04.007.071-.005.096-.035.025-.03.042-.079.052-.146l.041-.282-.254-.041zm-.504-.083l-.046.31c-.01.066-.004.118.019.156.022.038.061.061.116.07.049.008.087-.003.116-.033.03-.03.049-.08.059-.148l.045-.304-.31-.051zm.994-.088l-.088.593c-.017.118-.057.206-.118.264-.062.058-.138.08-.23.065-.097-.016-.164-.065-.203-.149-.006-.013-.012-.028-.017-.044-.015.027-.031.05-.049.07-.063.07-.143.097-.24.08-.12-.019-.204-.072-.254-.16-.05-.087-.065-.206-.043-.354l.064-.433.018-.122 1.16.19zM32.958 22.883c.056.072.146.123.27.153.125.031.23.028.315-.01.085-.037.14-.104.163-.201.024-.097.007-.181-.05-.253-.059-.073-.15-.124-.277-.155-.123-.03-.226-.027-.31.01-.082.038-.136.106-.16.203-.023.097-.007.181.049.253zm.008-.662c.131-.072.288-.086.47-.041.186.045.321.13.406.256.085.125.107.271.066.438-.041.168-.128.288-.262.36-.133.071-.293.085-.478.04-.183-.046-.315-.13-.398-.255-.083-.124-.104-.27-.062-.439.04-.167.127-.287.258-.359zM32.485 23.498L32.522 23.391 32.56 23.283 33.669 23.669 33.551 24.007 32.601 23.903 32.601 23.903 33.41 24.408 33.294 24.742 32.185 24.356 32.26 24.141 33.192 24.465 32.333 23.933 32.412 23.706 33.437 23.83 33.437 23.83 32.485 23.498M32.657 25.053l-.116.255c-.026.055-.034.102-.026.139.008.037.033.065.075.084.036.016.07.014.102-.007.03-.02.06-.06.087-.119l.112-.246-.234-.106zm-.465-.21l-.123.27c-.027.058-.034.107-.022.148.012.04.043.072.094.095.045.02.085.02.12 0 .036-.019.067-.059.094-.118l.122-.266-.285-.13zm.98.187l-.049.107-.187.41c-.047.103-.108.172-.182.209-.074.036-.153.035-.238-.003-.088-.04-.14-.104-.157-.19-.003-.014-.004-.03-.005-.045-.02.02-.043.038-.065.05-.078.048-.162.05-.252.01-.11-.05-.177-.121-.203-.214-.026-.094-.01-.205.05-.335l.171-.377.049-.107 1.068.485zM31.875 26.027l-.151.271.487.093v.001l-.336-.365zm.631.37l-.069.124-.069.124-1.226-.208.063-.113.063-.113.247.046.217-.387-.171-.183.061-.11.062-.11.822.93zM31.349 26.917L32.185 26.974 32.106 27.095 32.026 27.217 31.467 27.144 31.466 27.143 31.767 27.613 31.691 27.729 31.615 27.845 31.219 27.124 30.845 26.881 30.979 26.676 31.349 26.917M10.501 7.124L10.367 6.948 10.178 7.091 10.311 7.267 10.501 7.124M5.234 18.707c.051.06.09.11.117.15.078.116.117.217.118.304 0 .04-.008.075-.025.103-.02.034-.05.052-.087.053-.084 0-.126-.061-.128-.187-.001-.05.004-.09.014-.12l-.146.04c-.008.053-.013.097-.012.132 0 .044.006.085.016.124.004.015.009.03.016.046.006.018-.004.037-.033.058-.028.021-.053.031-.074.032-.043 0-.064-.03-.065-.094l-.006-.368-.272.005-.005-.27.572-.008zm-.07 1.797c.022.015.04.03.053.044.04.045.065.092.073.142.018.103-.03.164-.143.183l-.326.054-.034-.202-.022-.17.4-.05zm-.223-5.39c-.077.003-.13-.001-.16-.011-.047-.017-.08-.045-.097-.083-.016-.039-.017-.082 0-.129.038-.11.136-.173.29-.187.051-.005.125 0 .222.012l-.114.38c-.04.01-.094.018-.14.019zm.403-.346l.985.342.068-.193-.985-.343.05-.143-.148-.051-.054.152c-.05-.003-.101-.008-.153-.014-.294.001-.483.122-.567.362-.032.091-.034.17-.008.239.03.074.089.126.177.157.041.014.094.021.158.021.05 0 .127-.009.169-.023-.11.29-.415 1.564-.469 2.208-.01.007-.028.014-.041.018-.037.009-.08.011-.127.006-.15-.015-.216-.106-.198-.271.012-.117.1-.23.24-.367.058-.057.245-.209.349-.269l.021-.21c-.249.14-.43.305-.58.467-.11.12-.168.241-.18.358-.03.29.073.448.31.472.042.005.087.002.134-.008.017-.004.035-.009.053-.016l-.027.363-.593.422.11.162s.482-.45.476-.45c-.028.279-.008 1.403.022 1.778l-.539.347.106.178.443-.425.015.155-.347.408.166.076.193-.374s.086.682.153 1.005c0-.002.154-.025.154-.025l-.026-.155.353-.059c.078-.013.138-.053.182-.122.044-.069.06-.142.046-.221 0-.007-.002-.016-.005-.03l.302.352.105-.149-.48-.419.44-.057-.026-.203-1.033.133-.03-.27 1.038-.1-.02-.205s-1.038.102-1.038.1c-.019-.235-.018-.704-.018-.704l.12-.002.005.31c0 .046.018.085.052.116.034.03.075.045.122.044.067 0 .128-.031.183-.09.02-.02.039-.05.06-.087.015.017.028.03.04.038.034.024.075.035.123.035.082-.002.146-.043.194-.126.04-.069.059-.148.058-.236-.002-.104-.033-.216-.094-.334-.02-.04-.05-.086-.089-.138l.26-.004-.003-.203-1.042.017.01-.314 1.04.058.011-.205-1.04-.059.024-.315 1.037.108.022-.204-1.037-.108.05-.364.347.058-.018.109.006.038c.007.024.023.039.047.043.03.005.085-.03.167-.106.082-.075.126-.13.132-.161.006-.037-.007-.064-.04-.079-.004-.002-.02-.006-.047-.01l-.559-.095.06-.306 1.021.213.042-.2-1.02-.214.181-.733.527.137c.02.026.035.046.042.062.026.05.033.1.02.147-.027.102-.1.138-.223.106-.079-.02-.12-.077-.123-.17 0-.028.005-.071.019-.128l-.169.001c-.017.092-.022.162-.016.209.019.147.1.239.244.276.1.026.189.017.267-.026.078-.044.13-.116.157-.215.011-.045.013-.092.004-.143-.003-.016-.008-.038-.016-.065l.275.071.051-.196-.524-.136-.038-.038c-.05-.06-.067-.12-.052-.179.024-.09.09-.121.199-.093.068.018.132.067.192.147.019.025.042.063.069.114l.147-.116c-.037-.065-.07-.115-.098-.15-.084-.102-.174-.166-.269-.191-.085-.022-.166-.012-.242.032-.075.044-.124.108-.146.194-.015.055-.014.11.003.162.004.015.014.036.029.064l-.277-.072.197-.703zM8.794 8.988l.106-.11-.114-.109-.372.386-.44.503-.283.344-.325.425.125.096.109-.143.353.268c.013.031.022.08.028.146.012.12-.008.218-.062.296-.041.06-.091.098-.152.116-.02.006-.045.009-.077.009.056-.082.076-.175.059-.28-.017-.103-.066-.183-.147-.239-.083-.057-.175-.076-.275-.058-.1.018-.178.07-.236.152-.043.062-.063.126-.061.193 0 .076.03.134.09.175.09.062.182.057.277-.017.038-.03.062-.056.073-.08l-.11-.077c-.014.02-.033.034-.058.04-.024.007-.047.004-.067-.01-.05-.034-.055-.08-.016-.136.061-.088.145-.095.253-.021.063.043.095.101.097.173.003.064-.018.129-.063.195-.018.025-.047.059-.088.1l-.01.012-.058-.034-.175.291.19-.017.103-.17c.064.021.136.027.218.013.146-.024.264-.102.355-.234.087-.126.125-.254.114-.384l.274.208.124-.163-.828-.63.169-.214.81.658.128-.158-.81-.658.096-.117.41-.464.124-.128.201.193-.404.46c-.01.017-.015.03-.017.04-.006.032.004.059.03.081.028.025.097.039.208.041.11.003.178-.01.202-.036.03-.033.029-.063 0-.089l-.131-.115.234-.265.429.411.142-.148-.752-.721zM7.63 11.844c-.062.012-.122.022-.178.03-.042.006-.091.01-.15.015-.057.004-.087.006-.088.005l.022-.055c.012-.04.018-.074.017-.101-.002-.062-.038-.114-.107-.156l-.252-.15.098-.164-.134-.08-.462.767-.248.472-.378.81.142.066.212-.455.24.111c.017.008.03.017.04.027.022.024.026.054.01.088-.014.03-.058.049-.132.057-.02.002-.054.003-.104.003l.023.181c.048-.002.094-.006.138-.011.195-.02.405-.057.629-.107l.146-.035-.04-.194-.089.029c-.06.018-.119.035-.174.049-.04.01-.09.02-.147.03-.057.01-.086.015-.088.014.008-.023.013-.042.016-.057.009-.041.01-.075.007-.102-.009-.062-.05-.11-.122-.143l-.267-.124.077-.164.083-.158.297.156-.141.302.188-.037.09-.193.487.257.097-.182-.921-.485.07-.134.252-.42.227.136c.016.01.028.02.037.03.02.028.02.057 0 .09-.016.027-.062.042-.137.042-.019 0-.054-.002-.104-.008l.005.183.138.003c.197 0 .41-.014.637-.041l.15-.02-.02-.196-.092.019zm-1.486.119l-.192-.108-.117.208.193.108.116-.208zM11.663 7.46c-.027.04-.057.072-.087.094-.054.038-.106.056-.158.054-.057 0-.105-.027-.142-.08-.016-.022-.026-.046-.031-.07-.003-.007-.003-.015-.001-.024l.45-.028c-.01.022-.021.04-.03.055zm-.914.317l-.258.224-.238-.274.146-.127.129-.102.221.28zm2.172-.5l-.083-.004-.069-.005-.076-.008c.051-.02.087-.089.109-.208.015-.084.001-.165-.043-.24-.069-.121-.155-.152-.258-.092-.027.015-.06.043-.099.084-.038.04-.067.066-.085.077-.027.015-.077.007-.15-.024-.027-.012-.044-.025-.052-.037-.012-.022-.007-.038.014-.05l.385-.22-.15-.26.203-.115-.079-.136-.244.14c-.03-.01-.058-.02-.08-.03-.078-.038-.132-.086-.162-.144-.046-.09-.02-.16.08-.212.027-.013.05-.022.07-.025h.022l-.055-.107c-.056.009-.107.025-.152.048-.15.077-.189.185-.117.324.034.065.095.121.186.168.026.014.058.027.1.04-.592.334-1.588.982-2.347 1.68l.103.118.21-.182.238.274-.075.065-.022.035c-.01.026-.006.049.011.068.024.027.094.043.21.048.116.004.188-.006.217-.03.032-.029.03-.062-.004-.102l-.083-.096.253-.219.328.413.004-.003c-.002.007-.005.012-.006.019-.002.016-.003.032-.001.047l.168.024c-.002-.013-.002-.023-.001-.03.005-.042.023-.077.054-.104.067-.06.12-.064.16-.011l.013.026c.037.091.005.174-.096.249-.076.057-.161.083-.256.08-.029-.001-.067-.009-.114-.023l-.017.154c.067.013.12.02.158.02.124-.001.235-.037.332-.11.09-.067.151-.14.183-.22.039-.097.026-.187-.037-.272-.05-.066-.113-.1-.19-.104-.08-.004-.152.019-.219.069-.005.003-.008.008-.013.012l-.608-.765.69-.497.292.443-.418.03c.004-.015.009-.028.015-.038.019-.03.045-.057.078-.08.027-.02.057-.037.09-.053l.04-.016-.096-.103c-.013.003-.026.009-.04.016-.034.016-.067.036-.099.059-.088.062-.145.138-.173.226-.029.097-.013.188.048.273.06.083.138.13.235.14.097.011.187-.014.271-.074.051-.036.097-.085.138-.149.01-.014.02-.031.03-.051l.16.246.173-.113-.57-.87.104-.068.001.003.545-.311.075.131-.335.192c-.031.018-.052.042-.062.074-.01.03-.007.062.01.093.036.06.107.109.214.145.122.041.223.038.304-.008.01-.006.027-.02.049-.042.038-.038.065-.062.08-.071.031-.018.057-.008.079.029.046.08.043.152-.009.216-.032.04-.058.065-.077.076-.012.006-.021.008-.029.004-.035-.014-.064-.024-.087-.028-.066-.013-.12-.007-.16.016-.033.019-.055.044-.068.077-.012.032-.009.065.01.097.024.043.063.067.115.072.053.006.1-.005.143-.033l.079-.046c.011.003.035.01.072.018.075.017.162.033.263.046.05.007.1.011.15.013l.006-.182-.104.004zM5.482 24.742c-.06.05-.104.08-.133.09-.048.016-.09.015-.128-.005-.037-.02-.064-.053-.08-.1-.039-.11-.002-.22.111-.328.037-.035.097-.077.182-.127l.138.36c-.002.026-.032.062-.09.11zm-.116-1.383c-.014.013-.03.031-.05.056l-.084-.328.538-.14c.028.018.051.036.069.052.053.05.089.105.107.164.025.083.016.152-.03.206-.014.019-.04.038-.075.057-.026-.052-.05-.087-.07-.106-.07-.064-.16-.08-.272-.045-.044.013-.088.041-.133.084zm2.264 3.372l-.134.09-.152-.226.424-.259-.107-.176-.89.543-.136-.234.906-.513-.102-.178-.905.513-.297-.559.236-.12c.023-.009.039-.013.046-.013.034-.003.058.011.074.042.029.057.024.123-.014.2-.01.021-.032.055-.064.1l.164.093c.02-.036.034-.061.044-.075.142-.24.254-.457.335-.652l.065-.16-.178-.077c-.01.035-.02.07-.034.106-.026.074-.05.134-.07.182-.021.047-.044.093-.069.139-.017.03-.03.055-.042.073l-.038-.063c-.08-.116-.175-.146-.286-.09l-.262.134-.374-.849.184-.073.2.443c.027.061.072.1.135.117.063.018.126.012.189-.016.1-.044.193-.154.28-.328.026-.056.06-.137.098-.246l-.166-.079c.009.021-.013.091-.067.21-.063.14-.136.228-.221.266-.04.018-.076.016-.105-.006-.008-.006-.018-.02-.032-.04l-.17-.377.643-.256-.076-.191-.968.385-.112-.291.984-.343-.068-.193-.983.342-.14-.416c.007-.026.027-.053.062-.082.035-.028.067-.047.095-.055.11-.034.187.02.23.164.002.005.004.013.005.024l.008.023c.134-.04.228-.115.283-.22.055-.107.061-.227.02-.361-.014-.047-.042-.099-.083-.154l-.041-.05.287-.074-.052-.199-1.01.262-.037-.147-.152.04v.003s.23.893.379 1.3v.004c-.041.028-.084.056-.128.083-.23.184-.304.396-.22.637.032.09.08.154.143.191.069.04.148.044.236.014.041-.015.087-.042.137-.082.047-.037.086-.08.105-.115l.008.02s.184.388.39.844c.23.517.798 1.432.798 1.432l.134-.082-.093-.151.327-.2.156.232-.284.19c-.06.041-.094.097-.1.168-.004.064.015.127.058.191.093.138.2.166.323.084.023-.015.041-.032.054-.051.006-.006.013-.015.02-.028l-.08-.12-.01.014c-.013.021-.03.039-.053.053-.048.033-.089.026-.12-.021-.035-.052-.028-.094.02-.126l.282-.19.08.118c.027.04.06.048.1.021.025-.017.049-.09.07-.22.022-.131.024-.209.007-.235-.03-.043-.063-.052-.1-.028zM20.324 31.172l.008-.39.395.01-.016.388-.387-.008zm-.75-.012l-.386.005-.006-.39.393-.002-.002.387zm-1.972.09c-.042.048-.098.092-.168.132-.04.023-.074.035-.1.037-.037.003-.058-.017-.061-.06l-.038-.504.386-.026.02.373c-.016.022-.03.04-.039.049zm3.324.641l.043-1.089.275.011-.106-.221c-.765-.059-3.394-.029-4.407.083-.002 0 .13.208.13.208l.131-.01.029.382.013.067c.015.05.04.089.075.117.098.082.204.125.32.127.07-.005.133-.024.187-.055.011-.006.025-.017.041-.029l.015.271.252.15-.06-1.088.461-.02.01.259-.008.022c-.016.037-.05.056-.101.058-.042-.05-.084-.069-.126-.058-.05.013-.075.047-.072.101.001.044.017.086.048.127l.065.088.413.485.107-.103-.326-.371.056-.019c.084-.036.142-.09.174-.162.005-.01.01-.025.015-.044l-.015-.391.377-.008.006.39h-.05c-.02.006-.034.01-.043.015-.027.015-.038.04-.034.074.006.038.044.097.113.177.07.08.122.122.159.127.054.006.087-.017.097-.07.002-.01.002-.021.002-.036l-.001-.074.381-.006v.322l.241.165.005-1.089.274.003-.008.39h-.05c-.02.004-.034.008-.043.012-.028.014-.04.038-.037.073.005.038.04.098.107.18.066.083.118.127.154.133.055.008.088-.014.1-.067.002-.009.003-.02.003-.035l.002-.074.383.007-.013.322.236.173z"/>
        <path fill="#5D6585" d="M21.017 31.96c-.05-.052-.103-.084-.158-.095-.053-.006-.115-.01-.184-.013l.087.196c.007-.004.013-.006.018-.006.023-.002.052-.002.087.002.02.002.044.007.07.015.068.021.15.092.246.212.023.03.054.07.091.121l.05-.041-.14-.187c-.076-.1-.131-.168-.167-.205M26.272 32.857c-.034-.064-.077-.109-.126-.134-.05-.02-.108-.042-.174-.064l.03.212c.008-.002.014-.002.019 0 .023.004.05.013.082.026.02.008.04.02.063.034.06.039.12.129.18.27.014.034.032.082.054.142l.057-.027-.083-.217c-.044-.116-.079-.197-.102-.242"/>
        <path fill="#5D6585" d="M26.135 31.969l-.422-.092.082-.382.437.112-.097.362zm-1.345-.28c-.035.025-.068.044-.096.055-.085.035-.172.043-.26.026-.101-.02-.164-.066-.187-.135-.004-.01-.006-.024-.006-.043.06-.007.104-.014.133-.02.121-.03.19-.082.205-.157.007-.037.003-.084-.012-.139-.004-.015-.012-.037-.023-.065l.345.077-.099.402zm-1.26-.227c-.029.023-.056.041-.08.053-.082.042-.168.057-.256.046-.104-.013-.17-.053-.198-.12-.004-.01-.007-.024-.009-.043.059-.01.102-.021.131-.03.119-.04.183-.097.192-.172.005-.038-.003-.084-.022-.138-.005-.015-.015-.037-.028-.064l.334.047-.064.421zm-1.1-.677c.06.005.087.044.08.115-.008.084-.068.121-.18.11-.007-.007-.011-.013-.012-.017-.016-.031-.022-.064-.019-.099.008-.08.052-.117.132-.11zm4.26.73c-.8-.235-2.363-.585-2.864-.659-.003 0-.046-.181-.046-.181l-.036-.148c-.06-.227-.161-.353-.303-.378-.011-.002-.026-.004-.044-.005l.016.242.01.002.017.003c.112.02.189.101.232.246l.063.206c-.22-.042-.69-.106-1.038-.135l.087.228.34.042.015.018c.016.028.023.053.02.077-.004.04-.053.071-.146.095-.023.006-.086.018-.19.034l.018.13c.007.04.016.077.026.111-.026.019-.05.034-.068.044-.128.07-.237.1-.33.092-.14-.014-.204-.07-.195-.168.003-.032.022-.057.057-.076.011-.006.028-.012.05-.017l.311.03-.081-.191s-.074-.004-.126-.01c-.05-.006-.096-.052-.096-.052l.044.001c.143-.003.219-.055.228-.155.006-.064-.015-.121-.063-.172-.049-.05-.106-.079-.171-.085-.189-.017-.29.043-.303.183-.002.024-.002.043 0 .058.007.046.035.099.084.158.015.018.038.042.07.073-.032.015-.056.028-.07.04-.046.038-.071.086-.077.144-.01.11.033.211.128.302.084.08.173.123.265.132.087.008.171-.004.25-.037.026-.01.055-.026.088-.049l.019-.202c.009.026.018.05.03.07.066.134.173.21.322.227.083.01.168 0 .253-.028l-.03.201.216.198.162-1.077.576.107.013.02c.015.028.02.054.015.077-.008.04-.06.067-.154.083-.023.005-.087.012-.19.02.002.062.004.105.007.13.009.093.026.17.051.23.056.137.158.221.305.25.084.017.172.013.261-.01l-.05.203.196.217.26-1.059.436.1-.082.382-.048-.01c-.02 0-.036.002-.046.004-.03.008-.046.03-.05.065-.002.038.02.104.07.198.05.093.092.146.126.16.052.018.089.003.11-.047.004-.008.008-.02.011-.034l.015-.072.407.085-.096.32.186.226.29-1.045.286.078-.048-.24zM16.07 32.146c-.058-.045-.115-.068-.17-.071-.055.001-.117.006-.185.013l.114.182c.006-.006.012-.008.017-.008.023-.006.051-.01.086-.01.021-.001.045 0 .071.005.071.01.162.068.274.174.027.025.063.06.108.106l.043-.048-.166-.165c-.088-.087-.153-.147-.193-.178"/>
        <path fill="#5D6585" d="M15.188 31.477l-.061-.387-.002-.003.4-.055.05.384-.387.061zm.577-.476l.275-.036-.142-.199c-1.661.205-2.902.47-4.208 1.02-.002 0 .185.159.188.158.288-.136.832-.315.832-.315l.038.13-.674.27.022.127c.05-.008.085-.013.107-.014.149-.01.242.03.278.121.015.036.012.073-.009.11-.006.013-.018.028-.034.046l-.04-.019c-.032-.01-.063-.01-.094.002-.09.036-.117.095-.084.178.018.044.048.074.092.09.067.026.13.023.19-.009l.298.158.055-.12-.23-.122.018-.022c.086-.105.113-.196.081-.274-.027-.068-.078-.122-.153-.162-.013-.007-.033-.016-.062-.028l.308-.124.171.546.281.083-.327-1.04.226-.065.241.894.277.096s-.277-1.058-.283-1.053c.482-.128.95-.212.95-.212l.043.236-.614.138c-.026.012-.043.021-.053.029-.031.026-.042.06-.033.103.009.037.043.088.102.151.076.081.14.115.191.104.029-.007.051-.02.068-.042.017-.022.02-.046.01-.072-.008-.039-.006-.071.007-.097.004-.006.01-.014.02-.024l.342-.077.085.463.268.118-.2-1.074.3-.044.062.387-.05.007-.04.02c-.025.019-.033.045-.024.079.011.036.057.09.137.158.08.07.139.104.176.103.055-.001.083-.029.086-.083 0-.009 0-.02-.003-.035l-.011-.073.382-.06.041.32.261.132-.14-1.082z"/>
        <text fill="#5D6585" font-family="Montserrat-SemiBold, Montserrat" font-size="22" font-weight="500" letter-spacing=".11">
            <tspan x="48.4" y="27.6">IIT BOMBAY</tspan>
        </text>
    </g>
</svg>
