<svg id="Layer_5" enable-background="new 0 0 62 62" height="512" viewBox="0 0 62 62" width="512" xmlns="http://www.w3.org/2000/svg"><g><g><g><path d="m16 17h30v36h-30z" fill="#4fc1e9"/></g><g><path d="m21.61 7.54 1.39.46v1h-3c-.73 0-1.43.2-2.02.55-.23-2-1.92-3.55-3.98-3.55-2.21 0-4 1.79-4 4s1.79 4 4 4c.73 0 1.41-.19 2-.54v3.54 2h-4l-.46-1.39c-.41-.13-.8-.3-1.17-.49l-1.32.66-2.83-2.83.66-1.32c-.19-.37-.36-.76-.49-1.17l-1.39-.46v-4l1.39-.46c.13-.41.3-.8.49-1.17l-.66-1.32 2.83-2.83 1.32.66c.37-.19.76-.36 1.17-.49l.46-1.39h4l.46 1.39c.41.13.8.3 1.17.49l1.32-.66 2.83 2.83-.66 1.32c.19.37.36.76.49 1.17z" fill="#fcd770"/></g><g><path d="m20 21h10v6h-10z" fill="#ff826e"/></g><g><path d="m46 53v4c0 2.21-1.79 4-4 4h-22c-2.21 0-4-1.79-4-4v-4z" fill="#969faa"/></g><g><path d="m23 9h11.35c-.87 1.82-1.35 3.86-1.35 6 0 .68.05 1.35.14 2h-17.14v-3.54-.46c0-1.47.79-2.76 1.98-3.45.59-.35 1.29-.55 2.02-.55z" fill="#969faa"/></g><g><path d="m51 33v12c0 1.1-.45 2.1-1.17 2.83-.73.72-1.73 1.17-2.83 1.17-.35 0-.68-.04-1-.13-1.73-.44-3-2.01-3-3.87v-4-8z" fill="#969faa"/></g><g><path d="m51 31v2h-8v-2c0-.9.3-1.7.79-2.37 1.03.24 2.1.37 3.21.37s2.18-.13 3.21-.37c.49.67.79 1.47.79 2.37z" fill="#ccd1d9"/></g><g><path d="m29 41v6c0 1.1-.9 2-2 2h-11-4v2c0 .55-.22 1.05-.59 1.41-.36.37-.86.59-1.41.59-.63 0-1.22-.3-1.6-.8l-2.4-3.2h-3c-1.1 0-2-.9-2-2v-14c0-1.1.9-2 2-2h13 11c1.1 0 2 .9 2 2z" fill="#e6e9ed"/></g><g><path d="m21 37h4v8h-4z" fill="#ff826e"/></g><g><path d="m13 35h4v10h-4z" fill="#ff826e"/></g><g><path d="m5 39h4v6h-4z" fill="#ff826e"/></g><g><path d="m43.79 28.63c-5.55-1.31-9.83-5.91-10.65-11.63-.09-.65-.14-1.32-.14-2 0-2.14.48-4.18 1.35-6 2.25-4.73 7.07-8 12.65-8 7.73 0 14 6.27 14 14 0 6.62-4.6 12.17-10.79 13.63-1.03.24-2.1.37-3.21.37s-2.18-.13-3.21-.37z" fill="#fcd770"/></g><g><circle cx="47" cy="15" fill="#69d6f4" r="10"/></g></g><g><path d="m62 15c0-8.271-6.729-15-15-15-5.743 0-10.737 3.248-13.256 8h-9.744v-.721l-1.614-.538c-.048-.122-.099-.244-.153-.366l.762-1.523-3.848-3.848-1.523.762c-.122-.054-.244-.105-.366-.153l-.537-1.613h-5.441l-.538 1.614c-.122.048-.244.099-.366.153l-1.523-.762-3.848 3.848.762 1.523c-.055.122-.105.244-.153.366l-1.614.537v5.441l1.614.538c.048.122.099.244.153.366l-.762 1.523 3.848 3.848 1.523-.762c.122.054.244.105.366.153l.537 1.614h3.721v10h-12c-1.654 0-3 1.346-3 3v14c0 1.654 1.346 3 3 3h2.5l2.1 2.801c.564.751 1.461 1.199 2.4 1.199 1.654 0 3-1.346 3-3v-1h2v7c0 2.757 2.243 5 5 5h22c2.757 0 5-2.243 5-5v-7c2.757 0 5-2.243 5-5v-14c0-.605-.122-1.193-.336-1.752 5.993-1.967 10.336-7.606 10.336-14.248zm-29.949 1h-15.051v-3c0-1.654 1.346-3 3-3h12.875c-.556 1.567-.875 3.245-.875 5 0 .338.029.668.051 1zm-17.03-3.203c-.328.12-.668.203-1.021.203-1.654 0-3-1.346-3-3s1.346-3 3-3c1.346 0 2.498.886 2.872 2.132-1.082.876-1.791 2.182-1.851 3.665zm-2.3 5.203-.395-1.187-.481-.156c-.339-.109-.683-.253-1.023-.427l-.451-.23-1.123.562-1.809-1.809.561-1.124-.23-.45c-.174-.34-.318-.685-.427-1.023l-.156-.481-1.187-.396v-2.558l1.187-.395.156-.481c.109-.34.253-.684.427-1.024l.23-.45-.562-1.123 1.809-1.809 1.124.561.45-.23c.34-.174.685-.318 1.023-.427l.481-.156.396-1.187h2.559l.395 1.187.481.156c.339.109.683.253 1.023.427l.45.23 1.123-.562 1.809 1.809-.561 1.124.23.45c.174.34.318.685.427 1.023l.051.156h-.708c-.471 0-.918.086-1.35.209-.726-1.889-2.537-3.209-4.65-3.209-2.757 0-5 2.243-5 5s2.243 5 5 5c.338 0 .672-.045 1-.112v3.112zm-1.721 30v3c0 .551-.449 1-1 1-.313 0-.612-.149-.8-.4l-2.7-3.6h-3.5c-.551 0-1-.449-1-1v-14c0-.551.449-1 1-1h24c.551 0 1 .449 1 1v14c0 .551-.449 1-1 1zm31 12h-22c-1.654 0-3-1.346-3-3v-3h28v3c0 1.654-1.346 3-3 3zm3-8h-28v-2h10c1.654 0 3-1.346 3-3v-14c0-1.654-1.346-3-3-3h-10v-12h15.302c1.08 5.301 4.968 9.585 10.034 11.248-.214.559-.336 1.147-.336 1.752v14c0 2.045 1.237 3.802 3 4.576zm2-4c-1.654 0-3-1.346-3-3v-11h6v11c0 1.654-1.346 3-3 3zm3-17v1h-6v-1c0-.437.105-.861.294-1.257.879.161 1.781.257 2.706.257s1.827-.096 2.706-.257c.189.396.294.82.294 1.257zm-3-3c-7.168 0-13-5.832-13-13s5.832-13 13-13 13 5.832 13 13-5.832 13-13 13z"/><path d="m47 4c-6.065 0-11 4.935-11 11s4.935 11 11 11 11-4.935 11-11-4.935-11-11-11zm0 20c-4.962 0-9-4.038-9-9s4.038-9 9-9 9 4.038 9 9-4.038 9-9 9z"/><circle cx="20" cy="13" r="1"/><circle cx="24" cy="13" r="1"/><path d="m42 56h-2c-.552 0-1 .448-1 1s.448 1 1 1h2c.552 0 1-.448 1-1s-.448-1-1-1z"/><path d="m22 56h-2c-.552 0-1 .448-1 1s.448 1 1 1h2c.552 0 1-.448 1-1s-.448-1-1-1z"/><path d="m34 56h-6c-.552 0-1 .448-1 1s.448 1 1 1h6c.552 0 1-.448 1-1s-.448-1-1-1z"/><path d="m20 44h-2v-10h-6v10h-2v-6h-6v8h22v-10h-6zm-12 0h-2v-4h2zm6-8h2v8h-2zm8 2h2v6h-2z"/><path d="m19 28h12v-8h-12zm2-6h8v4h-8z"/><path d="m32 32h8v2h-8z"/><path d="m32 36h8v2h-8z"/><path d="m32 40h8v2h-8z"/><path d="m38 44h2v2h-2z"/><path d="m32 44h4v2h-4z"/><path d="m32 48h8v2h-8z"/><path d="m52 14h2v2h-2z"/><path d="m44 14h2v2h-2z"/><path d="m48 14h2v2h-2z"/><path d="m40 14h2v2h-2z"/><circle cx="47" cy="45" r="1"/></g></g></svg>