<svg id="Layer_5" enable-background="new 0 0 64 64" height="512" viewBox="0 0 64 64" width="512" xmlns="http://www.w3.org/2000/svg"><g><g><g><path d="m8 30.54v-16.54h54v38c0 1.1-.9 2-2 2h-25.45l-.87-1.74c.83-1.36 1.45-2.84 1.84-4.42l2.48-.84v-6l-2.48-.84c-.39-1.58-1.01-3.06-1.84-4.42l1.17-2.35-4.24-4.24-2.35 1.17c-1.36-.83-2.84-1.45-4.42-1.84l-.84-2.48h-6l-.84 2.48c-1.58.39-3.06 1.01-4.42 1.84l-2.35-1.17z" fill="#e6e9ed"/></g><g><path d="m62 4v10h-54v-10c0-1.1.9-2 2-2h50c1.1 0 2 .9 2 2z" fill="#b4dd7f"/></g><g><path d="m56 10h-10c-1.105 0-2-.895-2-2 0-1.105.895-2 2-2h10c1.105 0 2 .895 2 2 0 1.105-.895 2-2 2z" fill="#ff826e"/></g><g><path d="m42 42h16v8h-16z" fill="#ff826e"/></g><g><path d="m42 30h16v8h-16z" fill="#ff826e"/></g><g><path d="m42 18h16v8h-16z" fill="#ff826e"/></g><g><path d="m28 6h4v4h-4z" fill="#e6e9ed"/></g><g><path d="m20 6h4v4h-4z" fill="#e6e9ed"/></g><g><path d="m12 6h4v4h-4z" fill="#e6e9ed"/></g><g><path d="m38 41v6l-2.48.84c-.39 1.58-1.01 3.06-1.84 4.42l.87 1.74.3.61-4.24 4.24-2.35-1.17c-1.36.83-2.84 1.45-4.42 1.84l-.84 2.48h-6l-.84-2.48c-1.58-.39-3.06-1.01-4.42-1.84l-2.35 1.17-4.24-4.24 1.17-2.35c-.83-1.36-1.45-2.84-1.84-4.42l-2.48-.84v-6l2.48-.84c.39-1.58 1.01-3.06 1.84-4.42l-1.17-2.35 2.85-2.85 1.39-1.39 2.35 1.17c1.36-.83 2.84-1.45 4.42-1.84l.84-2.48h6l.84 2.48c1.58.39 3.06 1.01 4.42 1.84l2.35-1.17 4.24 4.24-1.17 2.35c.83 1.36 1.45 2.84 1.84 4.42zm-6 3c0-6.63-5.37-12-12-12s-12 5.37-12 12 5.37 12 12 12 12-5.37 12-12z" fill="#fcd770"/></g></g><g><path d="m20 31c-7.168 0-13 5.832-13 13s5.832 13 13 13 13-5.832 13-13-5.832-13-13-13zm0 24c-6.065 0-11-4.935-11-11s4.935-11 11-11 11 4.935 11 11-4.935 11-11 11z"/><path d="m60 1h-50c-1.654 0-3 1.346-3 3v26.13l-3.064 3.064 1.244 2.509c-.652 1.163-1.165 2.398-1.526 3.685l-2.654.893v7.438l2.653.894c.361 1.286.874 2.521 1.526 3.685l-1.244 2.509 5.259 5.259 2.509-1.245c1.165.654 2.4 1.166 3.685 1.527l.893 2.652h7.438l.894-2.653c1.284-.361 2.52-.873 3.685-1.527l2.509 1.245 5.063-5.065h24.13c1.654 0 3-1.346 3-3v-48c0-1.654-1.346-3-3-3zm-50 2h50c.552 0 1 .448 1 1v9h-52v-9c0-.552.448-1 1-1zm23.635 51.407-3.228 3.228-2.196-1.09-.47.284c-1.289.779-2.684 1.357-4.145 1.718l-.533.131-.782 2.322h-4.563l-.782-2.322-.533-.131c-1.461-.36-2.855-.938-4.145-1.718l-.47-.284-2.196 1.09-3.228-3.228 1.09-2.196-.284-.47c-.779-1.287-1.356-2.682-1.718-4.145l-.131-.533-2.321-.782v-4.563l2.322-.782.131-.533c.361-1.463.938-2.857 1.718-4.145l.284-.47-1.09-2.196 3.228-3.228 2.196 1.09.47-.284c1.287-.779 2.682-1.356 4.145-1.718l.533-.131.782-2.321h4.563l.782 2.322.533.131c1.463.361 2.857.938 4.145 1.718l.47.284 2.196-1.09 3.228 3.228-1.09 2.196.284.47c.779 1.287 1.356 2.682 1.718 4.145l.131.533 2.321.782v4.563l-2.322.782-.131.533c-.361 1.463-.938 2.857-1.718 4.145l-.284.47zm26.365-1.407h-24.831l-.349-.703c.652-1.163 1.165-2.398 1.526-3.685l2.654-.893v-7.438l-2.653-.894c-.361-1.286-.874-2.521-1.526-3.685l1.244-2.509-5.259-5.259-2.509 1.244c-1.163-.652-2.398-1.165-3.685-1.526l-.893-2.652h-7.438l-.894 2.653c-1.286.361-2.521.874-3.685 1.526l-2.509-1.244-.193.195v-13.13h52v37c0 .552-.448 1-1 1z"/><path d="m24.707 39.293-1.414 1.414 3.293 3.293-3.293 3.293 1.414 1.414 4.707-4.707z"/><path d="m13.414 44 3.293-3.293-1.414-1.414-4.707 4.707 4.707 4.707 1.414-1.414z"/><path d="m11.456 43h17.088v2.001h-17.088z" transform="matrix(.351 -.936 .936 .351 -28.221 47.277)"/><path d="m17 5h-6v6h6zm-2 4h-2v-2h2z"/><path d="m25 5h-6v6h6zm-2 4h-2v-2h2z"/><path d="m33 5h-6v6h6zm-2 4h-2v-2h2z"/><path d="m41 27h18v-10h-18zm2-8h14v6h-14z"/><path d="m53 21h2v2h-2z"/><path d="m49 21h2v2h-2z"/><path d="m45 21h2v2h-2z"/><path d="m41 39h18v-10h-18zm2-8h14v6h-14z"/><path d="m45 33h2v2h-2z"/><path d="m49 33h2v2h-2z"/><path d="m53 33h2v2h-2z"/><path d="m41 51h18v-10h-18zm2-8h14v6h-14z"/><path d="m53 45h2v2h-2z"/><path d="m49 45h2v2h-2z"/><path d="m45 45h2v2h-2z"/><path d="m11 17h2v2h-2z"/><path d="m15 17h18v2h-18z"/><path d="m11 21h22v2h-22z"/><path d="m46 11h10c1.654 0 3-1.346 3-3s-1.346-3-3-3h-10c-1.654 0-3 1.346-3 3s1.346 3 3 3zm5.414-2-2-2h2.172l2 2zm5.586-1c0 .43-.275.789-.656.93l-1.93-1.93h1.586c.552 0 1 .448 1 1zm-11-1h.586l2 2h-2.586c-.552 0-1-.448-1-1s.448-1 1-1z"/></g></g></svg>